G75*
G70*
%OFA0B0*%
%FSLAX24Y24*%
%IPPOS*%
%LPD*%
%AMOC8*
5,1,8,0,0,1.08239X$1,22.5*
%
%ADD10C,0.0592*%
%ADD11C,0.0820*%
%ADD12R,0.0820X0.0820*%
%ADD13C,0.0820*%
%ADD14C,0.0456*%
D10*
X000601Y000601D03*
X000601Y019101D03*
X019601Y019101D03*
X019601Y000601D03*
D11*
X017101Y005601D03*
X016101Y005601D03*
X015101Y005601D03*
X014101Y005601D03*
X013101Y005601D03*
X012101Y005601D03*
X010101Y006101D03*
X010101Y005101D03*
X009101Y005101D03*
X009101Y006101D03*
X008101Y006101D03*
X008101Y005101D03*
X007101Y005101D03*
X007101Y006101D03*
X006101Y006101D03*
X006101Y005101D03*
X005101Y005101D03*
X005101Y006101D03*
X005101Y007101D03*
X006101Y007101D03*
X007101Y007101D03*
X008101Y007101D03*
X009101Y007101D03*
X010101Y007101D03*
X012601Y008601D03*
X013601Y008601D03*
X014601Y008601D03*
X015601Y008601D03*
X016601Y008601D03*
X017601Y008601D03*
X018601Y008601D03*
X018601Y010101D03*
X017601Y010101D03*
X017601Y011101D03*
X018601Y011101D03*
X018601Y012101D03*
X017601Y012101D03*
X017601Y013101D03*
X018601Y013101D03*
X018601Y014101D03*
X017601Y014101D03*
X017601Y015101D03*
X018601Y015101D03*
X018601Y016101D03*
X017601Y016101D03*
X016601Y016101D03*
X016601Y015101D03*
X016601Y014101D03*
X016601Y013101D03*
X016601Y012101D03*
X016601Y011101D03*
X016601Y010101D03*
X013101Y002601D03*
X012101Y002601D03*
X011101Y002601D03*
X010101Y002601D03*
X009101Y002601D03*
X008101Y002601D03*
X008101Y018101D03*
X009101Y018101D03*
X007101Y018101D03*
X006101Y018101D03*
X005101Y018101D03*
X004101Y018101D03*
X003101Y018101D03*
D12*
X002101Y018101D03*
X011601Y008601D03*
X016601Y017101D03*
X017601Y017101D03*
X018601Y017101D03*
D13*
X006971Y003601D02*
X006231Y003601D01*
X006231Y002601D02*
X006971Y002601D01*
X006971Y001601D02*
X006231Y001601D01*
D14*
X005601Y002001D03*
X003501Y006451D03*
X005101Y010051D03*
X005601Y010101D03*
X004551Y011151D03*
X004101Y011601D03*
X003851Y013601D03*
X002101Y014101D03*
X002101Y015601D03*
X004401Y016551D03*
X006601Y014001D03*
X006751Y013201D03*
X007351Y013151D03*
X007851Y011601D03*
X008601Y010101D03*
X009401Y012651D03*
X009401Y013551D03*
X011601Y013051D03*
X014101Y013101D03*
X014101Y014101D03*
X014101Y015101D03*
X014101Y016101D03*
X014101Y017101D03*
X014101Y012101D03*
X008751Y016801D03*
X013601Y006601D03*
X015601Y006601D03*
X014601Y002601D03*
M02*
