%
M48
M72
T01C0.0236
T02C0.0400
T03C0.0440
T04C0.0512
%
T01
X5601Y2001
X3601Y6601
X5101Y10051
X5601Y10101
X4551Y11151
X4101Y11601
X3851Y13601
X2101Y14101
X2101Y15601
X4401Y16551
X6601Y14001
X6751Y13201
X7351Y13151
X7851Y11601
X9401Y12651
X9401Y13551
X11601Y13051
X14101Y13101
X14101Y14101
X14101Y15101
X14101Y16101
X14101Y17101
X14101Y12101
X8751Y16801
X8601Y9601
X12101Y4601
X14601Y4601
X15101Y4101
X15601Y3101
X14601Y3101
X17101Y3601
X10601Y601
T02
X11101Y2601
X12101Y2601
X13101Y2601
X10101Y2601
X9101Y2601
X8101Y2601
X8101Y5101
X9101Y5101
X10101Y5101
X10101Y6101
X9101Y6101
X8101Y6101
X7101Y6101
X7101Y5101
X6101Y5101
X6101Y6101
X5101Y6101
X5101Y5101
X5101Y7101
X6101Y7101
X7101Y7101
X8101Y7101
X9101Y7101
X10101Y7101
X11601Y8601
X12601Y8601
X13601Y8601
X14601Y8601
X15601Y8601
X16601Y8601
X17601Y8601
X18601Y8601
X18601Y10101
X17601Y10101
X17601Y11101
X18601Y11101
X18601Y12101
X17601Y12101
X17601Y13101
X18601Y13101
X18601Y14101
X17601Y14101
X17601Y15101
X18601Y15101
X18601Y16101
X17601Y16101
X17601Y17101
X18601Y17101
X16601Y17101
X16601Y16101
X16601Y15101
X16601Y14101
X16601Y13101
X16601Y12101
X16601Y11101
X16601Y10101
X18601Y6601
X18601Y5601
X18601Y4601
X18601Y3601
X18601Y2601
X18601Y1601
X9101Y18101
X8101Y18101
X7101Y18101
X6101Y18101
X5101Y18101
X4101Y18101
X3101Y18101
X2101Y18101
T03
X6601Y3601
X6601Y2601
X6601Y1601
T04
X601Y601
X601Y19101
X19601Y19101
X19601Y601
M30
