G75*
G70*
%OFA0B0*%
%FSLAX24Y24*%
%IPPOS*%
%LPD*%
%AMOC8*
5,1,8,0,0,1.08239X$1,22.5*
%
%ADD10R,0.0669X0.0276*%
%ADD11R,0.0217X0.0472*%
%ADD12R,0.0630X0.0551*%
%ADD13R,0.0354X0.0276*%
%ADD14R,0.0276X0.0354*%
%ADD15R,0.0315X0.0315*%
%ADD16R,0.0591X0.0197*%
%ADD17R,0.0197X0.0591*%
%ADD18R,0.2126X0.2441*%
%ADD19R,0.0394X0.0630*%
%ADD20R,0.0600X0.0300*%
%ADD21R,0.0500X0.0250*%
%ADD22R,0.0900X0.0960*%
%ADD23R,0.0760X0.0240*%
D10*
X004101Y012128D03*
X004101Y012601D03*
X004101Y013073D03*
D11*
X003475Y008613D03*
X003101Y008613D03*
X002727Y008613D03*
X002727Y007589D03*
X003475Y007589D03*
D12*
X001601Y007550D03*
X001601Y008652D03*
D13*
X005101Y008845D03*
X005601Y008845D03*
X006101Y008845D03*
X006601Y008845D03*
X007101Y008845D03*
X007601Y008845D03*
X007601Y009357D03*
X007101Y009357D03*
X006601Y009357D03*
X006101Y009357D03*
X005601Y009357D03*
X005101Y009357D03*
X011051Y012745D03*
X011051Y013257D03*
X017601Y002357D03*
X017601Y001845D03*
D14*
X008357Y003601D03*
X007845Y003601D03*
X002857Y010101D03*
X002345Y010101D03*
X002345Y011101D03*
X002857Y011101D03*
X002857Y013101D03*
X002345Y013101D03*
X004045Y015951D03*
X004557Y015951D03*
X013345Y015601D03*
X013857Y015601D03*
X013857Y016601D03*
X013345Y016601D03*
X013345Y017601D03*
X013857Y017601D03*
X014845Y017101D03*
X015357Y017101D03*
X015357Y016101D03*
X014845Y016101D03*
X014845Y015101D03*
X015357Y015101D03*
X015357Y014101D03*
X014845Y014101D03*
X014845Y013101D03*
X015357Y013101D03*
X015357Y012101D03*
X014845Y012101D03*
X013857Y012601D03*
X013345Y012601D03*
X013345Y013601D03*
X013857Y013601D03*
X013857Y014601D03*
X013345Y014601D03*
D15*
X002396Y012601D03*
X001806Y012601D03*
X001806Y011601D03*
X002396Y011601D03*
X002396Y010601D03*
X001806Y010601D03*
D16*
X005817Y011526D03*
X005817Y011841D03*
X005817Y012156D03*
X005817Y012471D03*
X005817Y012786D03*
X005817Y013101D03*
X005817Y013416D03*
X005817Y013731D03*
X005817Y014046D03*
X005817Y014361D03*
X005817Y014676D03*
X010384Y014676D03*
X010384Y014361D03*
X010384Y014046D03*
X010384Y013731D03*
X010384Y013416D03*
X010384Y013101D03*
X010384Y012786D03*
X010384Y012471D03*
X010384Y012156D03*
X010384Y011841D03*
X010384Y011526D03*
D17*
X009676Y010817D03*
X009361Y010817D03*
X009046Y010817D03*
X008731Y010817D03*
X008416Y010817D03*
X008101Y010817D03*
X007786Y010817D03*
X007471Y010817D03*
X007156Y010817D03*
X006841Y010817D03*
X006526Y010817D03*
X006526Y015384D03*
X006841Y015384D03*
X007156Y015384D03*
X007471Y015384D03*
X007786Y015384D03*
X008101Y015384D03*
X008416Y015384D03*
X008731Y015384D03*
X009046Y015384D03*
X009361Y015384D03*
X009676Y015384D03*
D18*
X002601Y004085D03*
D19*
X001703Y001211D03*
X003498Y001211D03*
D20*
X003101Y014351D03*
X003101Y015851D03*
X001101Y015851D03*
X001101Y014351D03*
D21*
X011601Y007113D03*
X011601Y006789D03*
X012551Y006789D03*
X012551Y007113D03*
D22*
X012551Y006951D03*
X011601Y006951D03*
D23*
X013390Y006601D03*
X013390Y006101D03*
X013390Y005601D03*
X013390Y005101D03*
X013390Y004601D03*
X013390Y004101D03*
X013390Y003601D03*
X015812Y003601D03*
X015812Y004101D03*
X015812Y004601D03*
X015812Y005101D03*
X015812Y005601D03*
X015812Y006101D03*
X015812Y006601D03*
M02*
