G75*
G70*
%OFA0B0*%
%FSLAX24Y24*%
%IPPOS*%
%LPD*%
%AMOC8*
5,1,8,0,0,1.08239X$1,22.5*
%
%ADD10C,0.0000*%
D10*
X000101Y000101D02*
X000101Y019597D01*
X020121Y019597D01*
X020121Y000101D01*
X000101Y000101D01*
X000345Y000601D02*
X000347Y000632D01*
X000353Y000663D01*
X000362Y000693D01*
X000375Y000722D01*
X000392Y000749D01*
X000412Y000773D01*
X000434Y000795D01*
X000460Y000814D01*
X000487Y000830D01*
X000516Y000842D01*
X000546Y000851D01*
X000577Y000856D01*
X000609Y000857D01*
X000640Y000854D01*
X000671Y000847D01*
X000701Y000837D01*
X000729Y000823D01*
X000755Y000805D01*
X000779Y000785D01*
X000800Y000761D01*
X000819Y000736D01*
X000834Y000708D01*
X000845Y000679D01*
X000853Y000648D01*
X000857Y000617D01*
X000857Y000585D01*
X000853Y000554D01*
X000845Y000523D01*
X000834Y000494D01*
X000819Y000466D01*
X000800Y000441D01*
X000779Y000417D01*
X000755Y000397D01*
X000729Y000379D01*
X000701Y000365D01*
X000671Y000355D01*
X000640Y000348D01*
X000609Y000345D01*
X000577Y000346D01*
X000546Y000351D01*
X000516Y000360D01*
X000487Y000372D01*
X000460Y000388D01*
X000434Y000407D01*
X000412Y000429D01*
X000392Y000453D01*
X000375Y000480D01*
X000362Y000509D01*
X000353Y000539D01*
X000347Y000570D01*
X000345Y000601D01*
X000345Y019101D02*
X000347Y019132D01*
X000353Y019163D01*
X000362Y019193D01*
X000375Y019222D01*
X000392Y019249D01*
X000412Y019273D01*
X000434Y019295D01*
X000460Y019314D01*
X000487Y019330D01*
X000516Y019342D01*
X000546Y019351D01*
X000577Y019356D01*
X000609Y019357D01*
X000640Y019354D01*
X000671Y019347D01*
X000701Y019337D01*
X000729Y019323D01*
X000755Y019305D01*
X000779Y019285D01*
X000800Y019261D01*
X000819Y019236D01*
X000834Y019208D01*
X000845Y019179D01*
X000853Y019148D01*
X000857Y019117D01*
X000857Y019085D01*
X000853Y019054D01*
X000845Y019023D01*
X000834Y018994D01*
X000819Y018966D01*
X000800Y018941D01*
X000779Y018917D01*
X000755Y018897D01*
X000729Y018879D01*
X000701Y018865D01*
X000671Y018855D01*
X000640Y018848D01*
X000609Y018845D01*
X000577Y018846D01*
X000546Y018851D01*
X000516Y018860D01*
X000487Y018872D01*
X000460Y018888D01*
X000434Y018907D01*
X000412Y018929D01*
X000392Y018953D01*
X000375Y018980D01*
X000362Y019009D01*
X000353Y019039D01*
X000347Y019070D01*
X000345Y019101D01*
X019345Y019101D02*
X019347Y019132D01*
X019353Y019163D01*
X019362Y019193D01*
X019375Y019222D01*
X019392Y019249D01*
X019412Y019273D01*
X019434Y019295D01*
X019460Y019314D01*
X019487Y019330D01*
X019516Y019342D01*
X019546Y019351D01*
X019577Y019356D01*
X019609Y019357D01*
X019640Y019354D01*
X019671Y019347D01*
X019701Y019337D01*
X019729Y019323D01*
X019755Y019305D01*
X019779Y019285D01*
X019800Y019261D01*
X019819Y019236D01*
X019834Y019208D01*
X019845Y019179D01*
X019853Y019148D01*
X019857Y019117D01*
X019857Y019085D01*
X019853Y019054D01*
X019845Y019023D01*
X019834Y018994D01*
X019819Y018966D01*
X019800Y018941D01*
X019779Y018917D01*
X019755Y018897D01*
X019729Y018879D01*
X019701Y018865D01*
X019671Y018855D01*
X019640Y018848D01*
X019609Y018845D01*
X019577Y018846D01*
X019546Y018851D01*
X019516Y018860D01*
X019487Y018872D01*
X019460Y018888D01*
X019434Y018907D01*
X019412Y018929D01*
X019392Y018953D01*
X019375Y018980D01*
X019362Y019009D01*
X019353Y019039D01*
X019347Y019070D01*
X019345Y019101D01*
X019345Y000601D02*
X019347Y000632D01*
X019353Y000663D01*
X019362Y000693D01*
X019375Y000722D01*
X019392Y000749D01*
X019412Y000773D01*
X019434Y000795D01*
X019460Y000814D01*
X019487Y000830D01*
X019516Y000842D01*
X019546Y000851D01*
X019577Y000856D01*
X019609Y000857D01*
X019640Y000854D01*
X019671Y000847D01*
X019701Y000837D01*
X019729Y000823D01*
X019755Y000805D01*
X019779Y000785D01*
X019800Y000761D01*
X019819Y000736D01*
X019834Y000708D01*
X019845Y000679D01*
X019853Y000648D01*
X019857Y000617D01*
X019857Y000585D01*
X019853Y000554D01*
X019845Y000523D01*
X019834Y000494D01*
X019819Y000466D01*
X019800Y000441D01*
X019779Y000417D01*
X019755Y000397D01*
X019729Y000379D01*
X019701Y000365D01*
X019671Y000355D01*
X019640Y000348D01*
X019609Y000345D01*
X019577Y000346D01*
X019546Y000351D01*
X019516Y000360D01*
X019487Y000372D01*
X019460Y000388D01*
X019434Y000407D01*
X019412Y000429D01*
X019392Y000453D01*
X019375Y000480D01*
X019362Y000509D01*
X019353Y000539D01*
X019347Y000570D01*
X019345Y000601D01*
M02*
