G75*
G70*
%OFA0B0*%
%FSLAX24Y24*%
%IPPOS*%
%LPD*%
%AMOC8*
5,1,8,0,0,1.08239X$1,22.5*
%
%ADD10C,0.0000*%
%ADD11C,0.0030*%
%ADD12C,0.0040*%
%ADD13C,0.0080*%
%ADD14C,0.0010*%
%ADD15C,0.0060*%
%ADD16C,0.0160*%
%ADD17R,0.0280X0.0160*%
%ADD18R,0.0160X0.0280*%
%ADD19C,0.0100*%
%ADD20R,0.0340X0.0300*%
D10*
X000101Y000101D02*
X000101Y019597D01*
X020121Y019597D01*
X020121Y000101D01*
X000101Y000101D01*
X000345Y000601D02*
X000347Y000632D01*
X000353Y000663D01*
X000362Y000693D01*
X000375Y000722D01*
X000392Y000749D01*
X000412Y000773D01*
X000434Y000795D01*
X000460Y000814D01*
X000487Y000830D01*
X000516Y000842D01*
X000546Y000851D01*
X000577Y000856D01*
X000609Y000857D01*
X000640Y000854D01*
X000671Y000847D01*
X000701Y000837D01*
X000729Y000823D01*
X000755Y000805D01*
X000779Y000785D01*
X000800Y000761D01*
X000819Y000736D01*
X000834Y000708D01*
X000845Y000679D01*
X000853Y000648D01*
X000857Y000617D01*
X000857Y000585D01*
X000853Y000554D01*
X000845Y000523D01*
X000834Y000494D01*
X000819Y000466D01*
X000800Y000441D01*
X000779Y000417D01*
X000755Y000397D01*
X000729Y000379D01*
X000701Y000365D01*
X000671Y000355D01*
X000640Y000348D01*
X000609Y000345D01*
X000577Y000346D01*
X000546Y000351D01*
X000516Y000360D01*
X000487Y000372D01*
X000460Y000388D01*
X000434Y000407D01*
X000412Y000429D01*
X000392Y000453D01*
X000375Y000480D01*
X000362Y000509D01*
X000353Y000539D01*
X000347Y000570D01*
X000345Y000601D01*
X000345Y019101D02*
X000347Y019132D01*
X000353Y019163D01*
X000362Y019193D01*
X000375Y019222D01*
X000392Y019249D01*
X000412Y019273D01*
X000434Y019295D01*
X000460Y019314D01*
X000487Y019330D01*
X000516Y019342D01*
X000546Y019351D01*
X000577Y019356D01*
X000609Y019357D01*
X000640Y019354D01*
X000671Y019347D01*
X000701Y019337D01*
X000729Y019323D01*
X000755Y019305D01*
X000779Y019285D01*
X000800Y019261D01*
X000819Y019236D01*
X000834Y019208D01*
X000845Y019179D01*
X000853Y019148D01*
X000857Y019117D01*
X000857Y019085D01*
X000853Y019054D01*
X000845Y019023D01*
X000834Y018994D01*
X000819Y018966D01*
X000800Y018941D01*
X000779Y018917D01*
X000755Y018897D01*
X000729Y018879D01*
X000701Y018865D01*
X000671Y018855D01*
X000640Y018848D01*
X000609Y018845D01*
X000577Y018846D01*
X000546Y018851D01*
X000516Y018860D01*
X000487Y018872D01*
X000460Y018888D01*
X000434Y018907D01*
X000412Y018929D01*
X000392Y018953D01*
X000375Y018980D01*
X000362Y019009D01*
X000353Y019039D01*
X000347Y019070D01*
X000345Y019101D01*
X019345Y019101D02*
X019347Y019132D01*
X019353Y019163D01*
X019362Y019193D01*
X019375Y019222D01*
X019392Y019249D01*
X019412Y019273D01*
X019434Y019295D01*
X019460Y019314D01*
X019487Y019330D01*
X019516Y019342D01*
X019546Y019351D01*
X019577Y019356D01*
X019609Y019357D01*
X019640Y019354D01*
X019671Y019347D01*
X019701Y019337D01*
X019729Y019323D01*
X019755Y019305D01*
X019779Y019285D01*
X019800Y019261D01*
X019819Y019236D01*
X019834Y019208D01*
X019845Y019179D01*
X019853Y019148D01*
X019857Y019117D01*
X019857Y019085D01*
X019853Y019054D01*
X019845Y019023D01*
X019834Y018994D01*
X019819Y018966D01*
X019800Y018941D01*
X019779Y018917D01*
X019755Y018897D01*
X019729Y018879D01*
X019701Y018865D01*
X019671Y018855D01*
X019640Y018848D01*
X019609Y018845D01*
X019577Y018846D01*
X019546Y018851D01*
X019516Y018860D01*
X019487Y018872D01*
X019460Y018888D01*
X019434Y018907D01*
X019412Y018929D01*
X019392Y018953D01*
X019375Y018980D01*
X019362Y019009D01*
X019353Y019039D01*
X019347Y019070D01*
X019345Y019101D01*
X019345Y000601D02*
X019347Y000632D01*
X019353Y000663D01*
X019362Y000693D01*
X019375Y000722D01*
X019392Y000749D01*
X019412Y000773D01*
X019434Y000795D01*
X019460Y000814D01*
X019487Y000830D01*
X019516Y000842D01*
X019546Y000851D01*
X019577Y000856D01*
X019609Y000857D01*
X019640Y000854D01*
X019671Y000847D01*
X019701Y000837D01*
X019729Y000823D01*
X019755Y000805D01*
X019779Y000785D01*
X019800Y000761D01*
X019819Y000736D01*
X019834Y000708D01*
X019845Y000679D01*
X019853Y000648D01*
X019857Y000617D01*
X019857Y000585D01*
X019853Y000554D01*
X019845Y000523D01*
X019834Y000494D01*
X019819Y000466D01*
X019800Y000441D01*
X019779Y000417D01*
X019755Y000397D01*
X019729Y000379D01*
X019701Y000365D01*
X019671Y000355D01*
X019640Y000348D01*
X019609Y000345D01*
X019577Y000346D01*
X019546Y000351D01*
X019516Y000360D01*
X019487Y000372D01*
X019460Y000388D01*
X019434Y000407D01*
X019412Y000429D01*
X019392Y000453D01*
X019375Y000480D01*
X019362Y000509D01*
X019353Y000539D01*
X019347Y000570D01*
X019345Y000601D01*
D11*
X019336Y001166D02*
X019274Y001227D01*
X019274Y001351D01*
X019336Y001413D01*
X019521Y001413D01*
X019521Y001536D02*
X019521Y001166D01*
X019336Y001166D01*
X019153Y001166D02*
X019153Y001351D01*
X019091Y001413D01*
X018906Y001413D01*
X018906Y001166D01*
X018785Y001166D02*
X018785Y001351D01*
X018723Y001413D01*
X018600Y001413D01*
X018600Y001289D02*
X018785Y001289D01*
X018785Y001166D02*
X018600Y001166D01*
X018538Y001227D01*
X018600Y001289D01*
X018416Y001166D02*
X018292Y001166D01*
X018354Y001166D02*
X018354Y001536D01*
X018292Y001536D01*
X018109Y001413D02*
X018171Y001351D01*
X018171Y001166D01*
X017924Y001166D02*
X017924Y001536D01*
X017986Y001413D02*
X018109Y001413D01*
X017986Y001413D02*
X017924Y001351D01*
X017803Y001413D02*
X017803Y001166D01*
X017617Y001166D01*
X017556Y001227D01*
X017556Y001413D01*
X017434Y001474D02*
X017434Y001351D01*
X017373Y001289D01*
X017187Y001289D01*
X017187Y001166D02*
X017187Y001536D01*
X017373Y001536D01*
X017434Y001474D01*
X017311Y001289D02*
X017434Y001166D01*
X016698Y001166D02*
X016513Y001166D01*
X016451Y001227D01*
X016451Y001413D01*
X016329Y001351D02*
X016329Y001166D01*
X016206Y001166D02*
X016206Y001351D01*
X016268Y001413D01*
X016329Y001351D01*
X016206Y001351D02*
X016144Y001413D01*
X016083Y001413D01*
X016083Y001166D01*
X015961Y001289D02*
X015714Y001289D01*
X015714Y001227D02*
X015714Y001351D01*
X015776Y001413D01*
X015899Y001413D01*
X015961Y001351D01*
X015961Y001289D01*
X015899Y001166D02*
X015776Y001166D01*
X015714Y001227D01*
X015592Y001413D02*
X015531Y001413D01*
X015407Y001289D01*
X015286Y001289D02*
X015039Y001289D01*
X015039Y001227D02*
X015039Y001351D01*
X015101Y001413D01*
X015224Y001413D01*
X015286Y001351D01*
X015286Y001289D01*
X015224Y001166D02*
X015101Y001166D01*
X015039Y001227D01*
X014856Y001227D02*
X014794Y001166D01*
X014732Y001166D01*
X014671Y001227D01*
X014856Y001227D02*
X014856Y001536D01*
X014794Y001536D02*
X014918Y001536D01*
X015407Y001413D02*
X015407Y001166D01*
X016574Y001042D02*
X016636Y001042D01*
X016698Y001104D01*
X016698Y001413D01*
X014181Y001413D02*
X014181Y001104D01*
X014119Y001042D01*
X014058Y001042D01*
X013996Y001166D02*
X014181Y001166D01*
X013996Y001166D02*
X013934Y001227D01*
X013934Y001413D01*
X013813Y001413D02*
X013751Y001351D01*
X013566Y001351D01*
X013751Y001351D02*
X013813Y001289D01*
X013813Y001227D01*
X013751Y001166D01*
X013566Y001166D01*
X013566Y001536D01*
X013751Y001536D01*
X013813Y001474D01*
X013813Y001413D01*
X013415Y001696D02*
X013269Y001696D01*
X013221Y001744D01*
X013221Y001841D01*
X013269Y001889D01*
X013415Y001889D01*
X013415Y001986D02*
X013415Y001696D01*
X013120Y001696D02*
X013120Y001841D01*
X013072Y001889D01*
X012926Y001889D01*
X012926Y001696D01*
X012825Y001744D02*
X012825Y001841D01*
X012729Y001841D01*
X012825Y001938D02*
X012777Y001986D01*
X012680Y001986D01*
X012632Y001938D01*
X012632Y001744D01*
X012680Y001696D01*
X012777Y001696D01*
X012825Y001744D01*
X012365Y001696D02*
X012365Y001986D01*
X012365Y001889D02*
X012219Y001889D01*
X012171Y001841D01*
X012171Y001744D01*
X012219Y001696D01*
X012365Y001696D01*
X012070Y001696D02*
X012070Y001841D01*
X012022Y001889D01*
X011876Y001889D01*
X011876Y001696D01*
X011775Y001744D02*
X011775Y001841D01*
X011679Y001841D01*
X011775Y001938D02*
X011727Y001986D01*
X011630Y001986D01*
X011582Y001938D01*
X011582Y001744D01*
X011630Y001696D01*
X011727Y001696D01*
X011775Y001744D01*
X011065Y001744D02*
X011016Y001696D01*
X010919Y001696D01*
X010871Y001744D01*
X010871Y001841D02*
X010968Y001889D01*
X011016Y001889D01*
X011065Y001841D01*
X011065Y001744D01*
X010871Y001841D02*
X010871Y001986D01*
X011065Y001986D01*
X010770Y001841D02*
X010576Y001841D01*
X010673Y001938D02*
X010673Y001744D01*
X010265Y001696D02*
X010071Y001889D01*
X009970Y001841D02*
X009922Y001793D01*
X009776Y001793D01*
X009776Y001696D02*
X009776Y001986D01*
X009922Y001986D01*
X009970Y001938D01*
X009970Y001841D01*
X009873Y001793D02*
X009970Y001696D01*
X010071Y001696D02*
X010265Y001889D01*
X009215Y001889D02*
X009021Y001696D01*
X009021Y001889D02*
X009215Y001696D01*
X008823Y001696D02*
X008823Y001986D01*
X008726Y001986D02*
X008920Y001986D01*
X008366Y001889D02*
X008269Y001889D01*
X008318Y001938D02*
X008318Y001744D01*
X008366Y001696D01*
X008168Y001744D02*
X008120Y001793D01*
X008023Y001793D01*
X007975Y001841D01*
X008023Y001889D01*
X008168Y001889D01*
X008168Y001744D02*
X008120Y001696D01*
X007975Y001696D01*
X007874Y001696D02*
X007777Y001793D01*
X007825Y001793D02*
X007680Y001793D01*
X007680Y001696D02*
X007680Y001986D01*
X007825Y001986D01*
X007874Y001938D01*
X007874Y001841D01*
X007825Y001793D01*
X007994Y004266D02*
X007946Y004314D01*
X007946Y004411D01*
X007994Y004459D01*
X008042Y004459D01*
X008091Y004411D01*
X008139Y004459D01*
X008187Y004459D01*
X008236Y004411D01*
X008236Y004314D01*
X008187Y004266D01*
X008091Y004363D02*
X008091Y004411D01*
X008946Y004411D02*
X009091Y004266D01*
X009091Y004459D01*
X009236Y004411D02*
X008946Y004411D01*
X009996Y004459D02*
X009996Y004266D01*
X010141Y004266D01*
X010092Y004363D01*
X010092Y004411D01*
X010141Y004459D01*
X010237Y004459D01*
X010286Y004411D01*
X010286Y004314D01*
X010237Y004266D01*
X010261Y003606D02*
X010164Y003606D01*
X010116Y003558D01*
X010116Y003509D01*
X010164Y003461D01*
X010261Y003461D01*
X010309Y003413D01*
X010309Y003364D01*
X010261Y003316D01*
X010164Y003316D01*
X010116Y003364D01*
X010309Y003558D02*
X010261Y003606D01*
X010410Y003461D02*
X010459Y003509D01*
X010556Y003509D01*
X010604Y003461D01*
X010604Y003413D01*
X010410Y003413D01*
X010410Y003461D02*
X010410Y003364D01*
X010459Y003316D01*
X010556Y003316D01*
X010705Y003316D02*
X010705Y003509D01*
X010705Y003413D02*
X010802Y003509D01*
X010850Y003509D01*
X010951Y003509D02*
X010999Y003509D01*
X010999Y003316D01*
X010951Y003316D02*
X011047Y003316D01*
X011147Y003364D02*
X011195Y003413D01*
X011340Y003413D01*
X011340Y003461D02*
X011340Y003316D01*
X011195Y003316D01*
X011147Y003364D01*
X011195Y003509D02*
X011292Y003509D01*
X011340Y003461D01*
X011442Y003606D02*
X011490Y003606D01*
X011490Y003316D01*
X011442Y003316D02*
X011538Y003316D01*
X010999Y003606D02*
X010999Y003654D01*
X011713Y004664D02*
X011713Y004858D01*
X011809Y004761D02*
X011616Y004761D01*
X011910Y004858D02*
X011959Y004906D01*
X012056Y004906D01*
X012104Y004858D01*
X012104Y004809D01*
X012056Y004761D01*
X012104Y004713D01*
X012104Y004664D01*
X012056Y004616D01*
X011959Y004616D01*
X011910Y004664D01*
X012007Y004761D02*
X012056Y004761D01*
X012205Y004664D02*
X012253Y004664D01*
X012253Y004616D01*
X012205Y004616D01*
X012205Y004664D01*
X012352Y004664D02*
X012401Y004616D01*
X012498Y004616D01*
X012546Y004664D01*
X012546Y004713D01*
X012498Y004761D01*
X012449Y004761D01*
X012498Y004761D02*
X012546Y004809D01*
X012546Y004858D01*
X012498Y004906D01*
X012401Y004906D01*
X012352Y004858D01*
X012666Y004858D02*
X012666Y004664D01*
X012714Y004616D01*
X012811Y004616D01*
X012859Y004664D01*
X012859Y004761D01*
X012763Y004761D01*
X012859Y004858D02*
X012811Y004906D01*
X012714Y004906D01*
X012666Y004858D01*
X012960Y004809D02*
X012960Y004616D01*
X012960Y004809D02*
X013106Y004809D01*
X013154Y004761D01*
X013154Y004616D01*
X013255Y004664D02*
X013255Y004761D01*
X013303Y004809D01*
X013449Y004809D01*
X013449Y004906D02*
X013449Y004616D01*
X013303Y004616D01*
X013255Y004664D01*
X013716Y004664D02*
X013764Y004616D01*
X013861Y004616D01*
X013909Y004664D01*
X013909Y004713D01*
X013861Y004761D01*
X013764Y004761D01*
X013716Y004809D01*
X013716Y004858D01*
X013764Y004906D01*
X013861Y004906D01*
X013909Y004858D01*
X014010Y004906D02*
X014010Y004616D01*
X014156Y004616D01*
X014204Y004664D01*
X014204Y004858D01*
X014156Y004906D01*
X014010Y004906D01*
X014305Y004809D02*
X014305Y004616D01*
X014305Y004761D02*
X014499Y004761D01*
X014499Y004809D02*
X014499Y004616D01*
X014499Y004809D02*
X014402Y004906D01*
X014305Y004809D01*
X014766Y004809D02*
X014814Y004761D01*
X014911Y004761D01*
X014959Y004713D01*
X014959Y004664D01*
X014911Y004616D01*
X014814Y004616D01*
X014766Y004664D01*
X014766Y004809D02*
X014766Y004858D01*
X014814Y004906D01*
X014911Y004906D01*
X014959Y004858D01*
X015060Y004906D02*
X015060Y004616D01*
X015254Y004616D01*
X015355Y004664D02*
X015403Y004616D01*
X015500Y004616D01*
X015549Y004664D01*
X015549Y004858D02*
X015500Y004906D01*
X015403Y004906D01*
X015355Y004858D01*
X015355Y004664D01*
X015816Y004616D02*
X015913Y004616D01*
X015864Y004616D02*
X015864Y004906D01*
X015816Y004906D02*
X015913Y004906D01*
X016012Y004809D02*
X016012Y004616D01*
X016012Y004809D02*
X016157Y004809D01*
X016206Y004761D01*
X016206Y004616D01*
X016355Y004664D02*
X016404Y004616D01*
X016355Y004664D02*
X016355Y004858D01*
X016307Y004809D02*
X016404Y004809D01*
X016503Y004809D02*
X016600Y004906D01*
X016600Y004616D01*
X016503Y004616D02*
X016697Y004616D01*
X016766Y004616D02*
X016863Y004616D01*
X016814Y004616D02*
X016814Y004906D01*
X016766Y004906D02*
X016863Y004906D01*
X016962Y004809D02*
X017107Y004809D01*
X017156Y004761D01*
X017156Y004616D01*
X017305Y004664D02*
X017305Y004858D01*
X017257Y004809D02*
X017354Y004809D01*
X017453Y004858D02*
X017453Y004664D01*
X017647Y004858D01*
X017647Y004664D01*
X017598Y004616D01*
X017502Y004616D01*
X017453Y004664D01*
X017354Y004616D02*
X017305Y004664D01*
X017453Y004858D02*
X017502Y004906D01*
X017598Y004906D01*
X017647Y004858D01*
X016962Y004809D02*
X016962Y004616D01*
X015000Y006314D02*
X014952Y006266D01*
X014855Y006266D01*
X014807Y006314D01*
X014807Y006508D01*
X014855Y006556D01*
X014952Y006556D01*
X015000Y006508D01*
X014706Y006508D02*
X014706Y006459D01*
X014512Y006266D01*
X014706Y006266D01*
X014413Y006266D02*
X014316Y006266D01*
X014364Y006266D02*
X014364Y006556D01*
X014316Y006556D02*
X014413Y006556D01*
X014512Y006508D02*
X014561Y006556D01*
X014657Y006556D01*
X014706Y006508D01*
X014656Y007666D02*
X014559Y007666D01*
X014510Y007714D01*
X014510Y007908D01*
X014559Y007956D01*
X014656Y007956D01*
X014704Y007908D01*
X014805Y007956D02*
X014805Y007811D01*
X014902Y007859D01*
X014950Y007859D01*
X014999Y007811D01*
X014999Y007714D01*
X014950Y007666D01*
X014853Y007666D01*
X014805Y007714D01*
X014704Y007714D02*
X014656Y007666D01*
X014409Y007811D02*
X014361Y007763D01*
X014216Y007763D01*
X014216Y007666D02*
X014216Y007956D01*
X014361Y007956D01*
X014409Y007908D01*
X014409Y007811D01*
X014049Y007811D02*
X013855Y007811D01*
X014000Y007956D01*
X014000Y007666D01*
X013754Y007714D02*
X013706Y007666D01*
X013609Y007666D01*
X013560Y007714D01*
X013560Y007908D01*
X013609Y007956D01*
X013706Y007956D01*
X013754Y007908D01*
X013459Y007908D02*
X013459Y007811D01*
X013411Y007763D01*
X013266Y007763D01*
X013266Y007666D02*
X013266Y007956D01*
X013411Y007956D01*
X013459Y007908D01*
X013049Y007908D02*
X013049Y007859D01*
X013000Y007811D01*
X013049Y007763D01*
X013049Y007714D01*
X013000Y007666D01*
X012903Y007666D01*
X012855Y007714D01*
X012754Y007714D02*
X012706Y007666D01*
X012609Y007666D01*
X012560Y007714D01*
X012560Y007908D01*
X012609Y007956D01*
X012706Y007956D01*
X012754Y007908D01*
X012855Y007908D02*
X012903Y007956D01*
X013000Y007956D01*
X013049Y007908D01*
X013000Y007811D02*
X012952Y007811D01*
X012459Y007811D02*
X012411Y007763D01*
X012266Y007763D01*
X012266Y007666D02*
X012266Y007956D01*
X012411Y007956D01*
X012459Y007908D01*
X012459Y007811D01*
X011949Y007859D02*
X011949Y007908D01*
X011900Y007956D01*
X011803Y007956D01*
X011755Y007908D01*
X011654Y007908D02*
X011606Y007956D01*
X011509Y007956D01*
X011460Y007908D01*
X011460Y007714D01*
X011509Y007666D01*
X011606Y007666D01*
X011654Y007714D01*
X011755Y007666D02*
X011949Y007859D01*
X011949Y007666D02*
X011755Y007666D01*
X011359Y007811D02*
X011359Y007908D01*
X011311Y007956D01*
X011166Y007956D01*
X011166Y007666D01*
X011166Y007763D02*
X011311Y007763D01*
X011359Y007811D01*
X014016Y009364D02*
X014064Y009316D01*
X014161Y009316D01*
X014209Y009364D01*
X014209Y009461D01*
X014113Y009461D01*
X014209Y009558D02*
X014161Y009606D01*
X014064Y009606D01*
X014016Y009558D01*
X014016Y009364D01*
X014310Y009316D02*
X014310Y009606D01*
X014456Y009606D01*
X014504Y009558D01*
X014504Y009461D01*
X014456Y009413D01*
X014310Y009413D01*
X014605Y009316D02*
X014702Y009316D01*
X014653Y009316D02*
X014653Y009606D01*
X014605Y009606D02*
X014702Y009606D01*
X014801Y009558D02*
X014801Y009364D01*
X014850Y009316D01*
X014947Y009316D01*
X014995Y009364D01*
X014995Y009558D01*
X014947Y009606D01*
X014850Y009606D01*
X014801Y009558D01*
X014805Y007956D02*
X014999Y007956D01*
X015216Y007956D02*
X015361Y007956D01*
X015409Y007908D01*
X015409Y007811D01*
X015361Y007763D01*
X015216Y007763D01*
X015216Y007666D02*
X015216Y007956D01*
X015510Y007908D02*
X015510Y007714D01*
X015559Y007666D01*
X015656Y007666D01*
X015704Y007714D01*
X015805Y007714D02*
X015853Y007666D01*
X015950Y007666D01*
X015999Y007714D01*
X015999Y007763D01*
X015950Y007811D01*
X015805Y007811D01*
X015805Y007714D01*
X015805Y007811D02*
X015902Y007908D01*
X015999Y007956D01*
X016266Y007956D02*
X016411Y007956D01*
X016459Y007908D01*
X016459Y007811D01*
X016411Y007763D01*
X016266Y007763D01*
X016266Y007666D02*
X016266Y007956D01*
X016560Y007908D02*
X016560Y007714D01*
X016609Y007666D01*
X016706Y007666D01*
X016754Y007714D01*
X016855Y007714D02*
X016855Y007666D01*
X016855Y007714D02*
X017049Y007908D01*
X017049Y007956D01*
X016855Y007956D01*
X016754Y007908D02*
X016706Y007956D01*
X016609Y007956D01*
X016560Y007908D01*
X017366Y007811D02*
X017559Y007811D01*
X017660Y007811D02*
X017660Y007956D01*
X017854Y007956D01*
X017806Y007859D02*
X017757Y007859D01*
X017660Y007811D01*
X017660Y007714D02*
X017709Y007666D01*
X017806Y007666D01*
X017854Y007714D01*
X017854Y007811D01*
X017806Y007859D01*
X018166Y007908D02*
X018166Y007714D01*
X018214Y007666D01*
X018311Y007666D01*
X018359Y007714D01*
X018359Y007811D01*
X018263Y007811D01*
X018359Y007908D02*
X018311Y007956D01*
X018214Y007956D01*
X018166Y007908D01*
X018460Y007859D02*
X018460Y007666D01*
X018460Y007859D02*
X018606Y007859D01*
X018654Y007811D01*
X018654Y007666D01*
X018755Y007714D02*
X018803Y007666D01*
X018949Y007666D01*
X018949Y007956D01*
X018949Y007859D02*
X018803Y007859D01*
X018755Y007811D01*
X018755Y007714D01*
X017463Y007714D02*
X017463Y007908D01*
X015704Y007908D02*
X015656Y007956D01*
X015559Y007956D01*
X015510Y007908D01*
X019316Y010016D02*
X019316Y010064D01*
X019509Y010258D01*
X019509Y010306D01*
X019316Y010306D01*
X019364Y011016D02*
X019461Y011016D01*
X019509Y011064D01*
X019509Y011113D01*
X019461Y011161D01*
X019316Y011161D01*
X019316Y011064D01*
X019364Y011016D01*
X019316Y011161D02*
X019413Y011258D01*
X019509Y011306D01*
X019366Y011946D02*
X019269Y011946D01*
X019221Y011994D01*
X019221Y012091D02*
X019318Y012139D01*
X019366Y012139D01*
X019415Y012091D01*
X019415Y011994D01*
X019366Y011946D01*
X019221Y012091D02*
X019221Y012236D01*
X019415Y012236D01*
X019366Y012946D02*
X019366Y013236D01*
X019221Y013091D01*
X019415Y013091D01*
X019366Y013946D02*
X019269Y013946D01*
X019221Y013994D01*
X019318Y014091D02*
X019366Y014091D01*
X019415Y014043D01*
X019415Y013994D01*
X019366Y013946D01*
X019366Y014091D02*
X019415Y014139D01*
X019415Y014188D01*
X019366Y014236D01*
X019269Y014236D01*
X019221Y014188D01*
X019221Y014996D02*
X019415Y015189D01*
X019415Y015238D01*
X019366Y015286D01*
X019269Y015286D01*
X019221Y015238D01*
X019221Y014996D02*
X019415Y014996D01*
X019415Y015946D02*
X019221Y015946D01*
X019318Y015946D02*
X019318Y016236D01*
X019221Y016139D01*
X019269Y016946D02*
X019221Y016994D01*
X019415Y017188D01*
X019415Y016994D01*
X019366Y016946D01*
X019269Y016946D01*
X019221Y016994D02*
X019221Y017188D01*
X019269Y017236D01*
X019366Y017236D01*
X019415Y017188D01*
X018999Y017816D02*
X018853Y017816D01*
X018805Y017864D01*
X018805Y017961D01*
X018853Y018009D01*
X018999Y018009D01*
X018999Y018106D02*
X018999Y017816D01*
X018704Y017816D02*
X018704Y017961D01*
X018656Y018009D01*
X018510Y018009D01*
X018510Y017816D01*
X018409Y017864D02*
X018409Y017961D01*
X018313Y017961D01*
X018409Y018058D02*
X018361Y018106D01*
X018264Y018106D01*
X018216Y018058D01*
X018216Y017864D01*
X018264Y017816D01*
X018361Y017816D01*
X018409Y017864D01*
X018377Y018266D02*
X018280Y018266D01*
X018328Y018266D02*
X018328Y018556D01*
X018280Y018556D02*
X018377Y018556D01*
X018476Y018459D02*
X018622Y018459D01*
X018670Y018411D01*
X018670Y018266D01*
X018771Y018266D02*
X018916Y018266D01*
X018965Y018314D01*
X018965Y018411D01*
X018916Y018459D01*
X018771Y018459D01*
X018771Y018169D01*
X018476Y018266D02*
X018476Y018459D01*
X019066Y018459D02*
X019066Y018314D01*
X019114Y018266D01*
X019259Y018266D01*
X019259Y018459D01*
X019360Y018459D02*
X019457Y018459D01*
X019409Y018508D02*
X019409Y018314D01*
X019457Y018266D01*
X017884Y018266D02*
X017739Y018266D01*
X017691Y018314D01*
X017691Y018411D01*
X017739Y018459D01*
X017884Y018459D01*
X017884Y018217D01*
X017836Y018169D01*
X017788Y018169D01*
X017854Y018106D02*
X017660Y018106D01*
X017660Y017961D01*
X017757Y018009D01*
X017806Y018009D01*
X017854Y017961D01*
X017854Y017864D01*
X017806Y017816D01*
X017709Y017816D01*
X017660Y017864D01*
X017559Y017961D02*
X017366Y017961D01*
X017463Y018058D02*
X017463Y017864D01*
X017444Y018266D02*
X017396Y018314D01*
X017396Y018411D01*
X017444Y018459D01*
X017541Y018459D01*
X017590Y018411D01*
X017590Y018314D01*
X017541Y018266D01*
X017444Y018266D01*
X017296Y018266D02*
X017200Y018266D01*
X017248Y018266D02*
X017248Y018556D01*
X017200Y018556D01*
X017099Y018411D02*
X017099Y018266D01*
X016953Y018266D01*
X016905Y018314D01*
X016953Y018363D01*
X017099Y018363D01*
X017099Y018411D02*
X017050Y018459D01*
X016953Y018459D01*
X016804Y018411D02*
X016804Y018266D01*
X016804Y018411D02*
X016756Y018459D01*
X016610Y018459D01*
X016610Y018266D01*
X016509Y018266D02*
X016509Y018459D01*
X016413Y018556D01*
X016316Y018459D01*
X016316Y018266D01*
X016316Y018411D02*
X016509Y018411D01*
X016659Y018154D02*
X016659Y018106D01*
X016659Y018009D02*
X016659Y017816D01*
X016707Y017816D02*
X016610Y017816D01*
X016509Y017864D02*
X016461Y017816D01*
X016364Y017816D01*
X016316Y017864D01*
X016364Y017961D02*
X016461Y017961D01*
X016509Y017913D01*
X016509Y017864D01*
X016364Y017961D02*
X016316Y018009D01*
X016316Y018058D01*
X016364Y018106D01*
X016461Y018106D01*
X016509Y018058D01*
X016610Y018009D02*
X016659Y018009D01*
X016807Y017961D02*
X016807Y017864D01*
X016855Y017816D01*
X017000Y017816D01*
X017000Y017767D02*
X017000Y018009D01*
X016855Y018009D01*
X016807Y017961D01*
X017000Y017767D02*
X016952Y017719D01*
X016904Y017719D01*
X009354Y017456D02*
X009160Y017456D01*
X009160Y017311D01*
X009257Y017359D01*
X009306Y017359D01*
X009354Y017311D01*
X009354Y017214D01*
X009306Y017166D01*
X009209Y017166D01*
X009160Y017214D01*
X009059Y017311D02*
X008866Y017311D01*
X008963Y017408D02*
X008963Y017214D01*
X008499Y017166D02*
X008353Y017166D01*
X008305Y017214D01*
X008305Y017311D01*
X008353Y017359D01*
X008499Y017359D01*
X008499Y017456D02*
X008499Y017166D01*
X008204Y017166D02*
X008204Y017311D01*
X008156Y017359D01*
X008010Y017359D01*
X008010Y017166D01*
X007909Y017214D02*
X007909Y017311D01*
X007813Y017311D01*
X007909Y017408D02*
X007861Y017456D01*
X007764Y017456D01*
X007716Y017408D01*
X007716Y017214D01*
X007764Y017166D01*
X007861Y017166D01*
X007909Y017214D01*
X007549Y017214D02*
X007500Y017166D01*
X007403Y017166D01*
X007355Y017214D01*
X007549Y017408D01*
X007549Y017214D01*
X007549Y017408D02*
X007500Y017456D01*
X007403Y017456D01*
X007355Y017408D01*
X007355Y017214D01*
X007254Y017214D02*
X007206Y017166D01*
X007060Y017166D01*
X007060Y017456D01*
X007206Y017456D01*
X007254Y017408D01*
X007254Y017359D01*
X007206Y017311D01*
X007060Y017311D01*
X006959Y017311D02*
X006911Y017263D01*
X006766Y017263D01*
X006766Y017166D02*
X006766Y017456D01*
X006911Y017456D01*
X006959Y017408D01*
X006959Y017311D01*
X007206Y017311D02*
X007254Y017263D01*
X007254Y017214D01*
X006599Y017166D02*
X006405Y017166D01*
X006502Y017166D02*
X006502Y017456D01*
X006405Y017359D01*
X006304Y017359D02*
X006256Y017311D01*
X006110Y017311D01*
X006009Y017311D02*
X006009Y017408D01*
X005961Y017456D01*
X005816Y017456D01*
X005816Y017166D01*
X005816Y017263D02*
X005961Y017263D01*
X006009Y017311D01*
X006110Y017456D02*
X006256Y017456D01*
X006304Y017408D01*
X006304Y017359D01*
X006256Y017311D02*
X006304Y017263D01*
X006304Y017214D01*
X006256Y017166D01*
X006110Y017166D01*
X006110Y017456D01*
X005499Y017408D02*
X005450Y017456D01*
X005353Y017456D01*
X005305Y017408D01*
X005204Y017408D02*
X005204Y017359D01*
X005156Y017311D01*
X005010Y017311D01*
X004909Y017311D02*
X004861Y017263D01*
X004716Y017263D01*
X004716Y017166D02*
X004716Y017456D01*
X004861Y017456D01*
X004909Y017408D01*
X004909Y017311D01*
X005010Y017166D02*
X005010Y017456D01*
X005156Y017456D01*
X005204Y017408D01*
X005156Y017311D02*
X005204Y017263D01*
X005204Y017214D01*
X005156Y017166D01*
X005010Y017166D01*
X005305Y017166D02*
X005499Y017359D01*
X005499Y017408D01*
X005499Y017166D02*
X005305Y017166D01*
X004156Y017219D02*
X004156Y017316D01*
X004156Y017268D02*
X003866Y017268D01*
X003866Y017316D02*
X003866Y017219D01*
X003914Y017118D02*
X003866Y017070D01*
X003866Y016973D01*
X003914Y016925D01*
X003962Y016925D01*
X004011Y016973D01*
X004011Y017070D01*
X004059Y017118D01*
X004107Y017118D01*
X004156Y017070D01*
X004156Y016973D01*
X004107Y016925D01*
X004107Y016824D02*
X003914Y016824D01*
X003866Y016775D01*
X003866Y016678D01*
X003914Y016630D01*
X004107Y016630D01*
X004156Y016678D01*
X004156Y016775D01*
X004107Y016824D01*
X004156Y016529D02*
X003866Y016529D01*
X003962Y016432D01*
X003866Y016335D01*
X004156Y016335D01*
X003256Y016335D02*
X002966Y016335D01*
X003062Y016432D01*
X002966Y016529D01*
X003256Y016529D01*
X003256Y016630D02*
X003256Y016727D01*
X003256Y016678D02*
X002966Y016678D01*
X002966Y016630D02*
X002966Y016727D01*
X003014Y016826D02*
X003062Y016826D01*
X003111Y016875D01*
X003111Y016972D01*
X003159Y017020D01*
X003207Y017020D01*
X003256Y016972D01*
X003256Y016875D01*
X003207Y016826D01*
X003014Y016826D02*
X002966Y016875D01*
X002966Y016972D01*
X003014Y017020D01*
X003014Y017121D02*
X003207Y017121D01*
X003256Y017169D01*
X003256Y017266D01*
X003207Y017315D01*
X003014Y017315D01*
X002966Y017266D01*
X002966Y017169D01*
X003014Y017121D01*
X002500Y017166D02*
X002355Y017263D01*
X002500Y017359D01*
X002355Y017456D02*
X002355Y017166D01*
X002254Y017166D02*
X002109Y017166D01*
X002060Y017214D01*
X002060Y017311D01*
X002109Y017359D01*
X002254Y017359D01*
X001959Y017408D02*
X001911Y017456D01*
X001814Y017456D01*
X001766Y017408D01*
X001766Y017359D01*
X001814Y017311D01*
X001911Y017311D01*
X001959Y017263D01*
X001959Y017214D01*
X001911Y017166D01*
X001814Y017166D01*
X001766Y017214D01*
X005116Y018914D02*
X005164Y018866D01*
X005261Y018866D01*
X005309Y018914D01*
X005309Y019011D01*
X005213Y019011D01*
X005309Y019108D02*
X005261Y019156D01*
X005164Y019156D01*
X005116Y019108D01*
X005116Y018914D01*
X005410Y018866D02*
X005410Y019156D01*
X005556Y019156D01*
X005604Y019108D01*
X005604Y019011D01*
X005556Y018963D01*
X005410Y018963D01*
X005705Y018866D02*
X005802Y018866D01*
X005753Y018866D02*
X005753Y019156D01*
X005705Y019156D02*
X005802Y019156D01*
X005901Y019108D02*
X005901Y018914D01*
X005950Y018866D01*
X006047Y018866D01*
X006095Y018914D01*
X006095Y019108D01*
X006047Y019156D01*
X005950Y019156D01*
X005901Y019108D01*
X006043Y008056D02*
X005994Y008008D01*
X005994Y007814D01*
X006043Y007766D01*
X006139Y007766D01*
X006188Y007814D01*
X006188Y008008D01*
X006139Y008056D01*
X006043Y008056D01*
X006289Y007959D02*
X006289Y007814D01*
X006337Y007766D01*
X006482Y007766D01*
X006482Y007959D01*
X006584Y007959D02*
X006680Y007959D01*
X006632Y008008D02*
X006632Y007814D01*
X006680Y007766D01*
X005599Y007766D02*
X005599Y008056D01*
X005502Y007959D01*
X005405Y008056D01*
X005405Y007766D01*
X005304Y007766D02*
X005304Y008056D01*
X005110Y008056D02*
X005110Y007766D01*
X005207Y007863D01*
X005304Y007766D01*
X005009Y007911D02*
X004961Y007863D01*
X004816Y007863D01*
X004816Y007766D02*
X004816Y008056D01*
X004961Y008056D01*
X005009Y008008D01*
X005009Y007911D01*
X004454Y007365D02*
X004212Y007365D01*
X004212Y007219D01*
X004261Y007171D01*
X004357Y007171D01*
X004406Y007219D01*
X004406Y007365D01*
X004454Y007365D02*
X004503Y007316D01*
X004503Y007268D01*
X004406Y007071D02*
X004406Y006975D01*
X004406Y007023D02*
X004212Y007023D01*
X004212Y006975D01*
X004116Y007023D02*
X004067Y007023D01*
X004164Y006874D02*
X004116Y006825D01*
X004116Y006728D01*
X004164Y006680D01*
X004212Y006680D01*
X004261Y006728D01*
X004261Y006825D01*
X004309Y006874D01*
X004357Y006874D01*
X004406Y006825D01*
X004406Y006728D01*
X004357Y006680D01*
X004311Y006265D02*
X004407Y006265D01*
X004456Y006216D01*
X004456Y006119D01*
X004407Y006071D01*
X004311Y006071D02*
X004262Y006168D01*
X004262Y006216D01*
X004311Y006265D01*
X004166Y006265D02*
X004166Y006071D01*
X004311Y006071D01*
X004311Y005970D02*
X004311Y005776D01*
X004407Y005873D02*
X004214Y005873D01*
X004166Y005415D02*
X004456Y005415D01*
X004456Y005269D01*
X004407Y005221D01*
X004311Y005221D01*
X004262Y005269D01*
X004262Y005415D01*
X004311Y005120D02*
X004456Y005120D01*
X004311Y005120D02*
X004262Y005072D01*
X004262Y004926D01*
X004456Y004926D01*
X004407Y004825D02*
X004311Y004825D01*
X004311Y004729D01*
X004407Y004825D02*
X004456Y004777D01*
X004456Y004680D01*
X004407Y004632D01*
X004214Y004632D01*
X004166Y004680D01*
X004166Y004777D01*
X004214Y004825D01*
X004896Y004411D02*
X004896Y004314D01*
X004944Y004266D01*
X005137Y004266D01*
X004944Y004459D01*
X005137Y004459D01*
X005186Y004411D01*
X005186Y004314D01*
X005137Y004266D01*
X004944Y004459D02*
X004896Y004411D01*
X004686Y003680D02*
X004686Y003584D01*
X004686Y003632D02*
X004396Y003632D01*
X004396Y003584D01*
X004541Y003482D02*
X004589Y003482D01*
X004589Y003289D01*
X004541Y003289D02*
X004492Y003337D01*
X004492Y003434D01*
X004541Y003482D01*
X004686Y003434D02*
X004686Y003337D01*
X004637Y003289D01*
X004541Y003289D01*
X004589Y003188D02*
X004637Y003188D01*
X004686Y003139D01*
X004686Y003043D01*
X004637Y002994D01*
X004541Y003043D02*
X004541Y003139D01*
X004589Y003188D01*
X004444Y003188D02*
X004396Y003139D01*
X004396Y003043D01*
X004444Y002994D01*
X004492Y002994D01*
X004541Y003043D01*
X004541Y002599D02*
X004444Y002599D01*
X004396Y002550D01*
X004396Y002405D01*
X004686Y002405D01*
X004589Y002405D02*
X004589Y002550D01*
X004541Y002599D01*
X004589Y002502D02*
X004686Y002599D01*
X004996Y002400D02*
X005044Y002449D01*
X005092Y002449D01*
X005141Y002400D01*
X005141Y002255D01*
X005189Y002154D02*
X005237Y002154D01*
X005286Y002106D01*
X005286Y002009D01*
X005237Y001960D01*
X005237Y001859D02*
X004996Y001859D01*
X005044Y001960D02*
X005092Y001960D01*
X005141Y002009D01*
X005141Y002106D01*
X005189Y002154D01*
X005286Y002255D02*
X004996Y002255D01*
X004996Y002400D01*
X005141Y002400D02*
X005189Y002449D01*
X005237Y002449D01*
X005286Y002400D01*
X005286Y002255D01*
X005044Y002154D02*
X004996Y002106D01*
X004996Y002009D01*
X005044Y001960D01*
X005237Y001859D02*
X005286Y001811D01*
X005286Y001714D01*
X005237Y001666D01*
X004996Y001666D01*
X004686Y001816D02*
X004396Y001816D01*
X004396Y001961D01*
X004444Y002009D01*
X004541Y002009D01*
X004589Y001961D01*
X004589Y001816D01*
X004686Y002110D02*
X004396Y002110D01*
X004396Y002304D02*
X004686Y002304D01*
X004589Y002207D01*
X004686Y002110D01*
X004996Y002866D02*
X004996Y003011D01*
X005044Y003059D01*
X005092Y003059D01*
X005141Y003011D01*
X005141Y002866D01*
X005286Y002866D02*
X005286Y003011D01*
X005237Y003059D01*
X005189Y003059D01*
X005141Y003011D01*
X005141Y003160D02*
X005141Y003354D01*
X005092Y003354D02*
X005286Y003354D01*
X005286Y003160D02*
X005092Y003160D01*
X004996Y003257D01*
X005092Y003354D01*
X004996Y003455D02*
X004996Y003649D01*
X004996Y003552D02*
X005286Y003552D01*
X005992Y004266D02*
X005896Y004363D01*
X006186Y004363D01*
X006186Y004459D02*
X006186Y004266D01*
X006946Y004314D02*
X006994Y004266D01*
X006946Y004314D02*
X006946Y004411D01*
X006994Y004459D01*
X007042Y004459D01*
X007236Y004266D01*
X007236Y004459D01*
X005286Y002866D02*
X004996Y002866D01*
D12*
X015121Y002847D02*
X015197Y002771D01*
X015351Y002771D01*
X015428Y002847D01*
X015428Y003154D01*
X015351Y003231D01*
X015197Y003231D01*
X015121Y003154D01*
X015121Y002847D01*
X015274Y002924D02*
X015428Y002771D01*
X015581Y002847D02*
X015581Y003078D01*
X015581Y002847D02*
X015658Y002771D01*
X015888Y002771D01*
X015888Y003078D01*
X016118Y003078D02*
X016272Y003078D01*
X016348Y003001D01*
X016348Y002771D01*
X016118Y002771D01*
X016041Y002847D01*
X016118Y002924D01*
X016348Y002924D01*
X016502Y002847D02*
X016502Y003001D01*
X016579Y003078D01*
X016809Y003078D01*
X016809Y003231D02*
X016809Y002771D01*
X016579Y002771D01*
X016502Y002847D01*
X016962Y002847D02*
X017039Y002771D01*
X017269Y002771D01*
X017423Y002847D02*
X017423Y003001D01*
X017499Y003078D01*
X017653Y003078D01*
X017729Y003001D01*
X017729Y002847D01*
X017653Y002771D01*
X017499Y002771D01*
X017423Y002847D01*
X017269Y003078D02*
X017039Y003078D01*
X016962Y003001D01*
X016962Y002847D01*
X016962Y002228D02*
X017039Y002228D01*
X016962Y002228D02*
X016809Y002074D01*
X016809Y001921D02*
X016809Y002228D01*
X016655Y002228D02*
X016502Y002228D01*
X016579Y002304D02*
X016579Y001997D01*
X016655Y001921D01*
X016348Y001921D02*
X016348Y002151D01*
X016272Y002228D01*
X016041Y002228D01*
X016041Y001921D01*
X015888Y001997D02*
X015888Y002151D01*
X015811Y002228D01*
X015658Y002228D01*
X015581Y002151D01*
X015581Y001997D01*
X015658Y001921D01*
X015811Y001921D01*
X015888Y001997D01*
X015428Y001997D02*
X015351Y001921D01*
X015197Y001921D01*
X015121Y001997D01*
X015121Y002304D01*
X015197Y002381D01*
X015351Y002381D01*
X015428Y002304D01*
X015428Y003571D02*
X015274Y003724D01*
X015121Y003571D01*
X015121Y004031D01*
X015428Y004031D02*
X015428Y003571D01*
X015581Y003571D02*
X015735Y003724D01*
X015888Y003571D01*
X015888Y004031D01*
X016041Y004031D02*
X016041Y003647D01*
X016118Y003571D01*
X016272Y003571D01*
X016348Y003647D01*
X016348Y004031D01*
X015581Y004031D02*
X015581Y003571D01*
X017192Y002151D02*
X017192Y001997D01*
X017269Y001921D01*
X017423Y001921D01*
X017499Y001997D01*
X017499Y002151D01*
X017423Y002228D01*
X017269Y002228D01*
X017192Y002151D01*
X017521Y002228D02*
X017674Y001921D01*
X017828Y002228D01*
X017981Y002304D02*
X018058Y002381D01*
X018211Y002381D01*
X018288Y002304D01*
X017981Y001997D01*
X018058Y001921D01*
X018211Y001921D01*
X018288Y001997D01*
X018288Y002304D01*
X018441Y001997D02*
X018518Y001997D01*
X018518Y001921D01*
X018441Y001921D01*
X018441Y001997D01*
X018672Y001921D02*
X018979Y001921D01*
X019132Y001921D02*
X019132Y001997D01*
X019209Y001997D01*
X019209Y001921D01*
X019132Y001921D01*
X019362Y001921D02*
X019669Y002228D01*
X019669Y002304D01*
X019592Y002381D01*
X019439Y002381D01*
X019362Y002304D01*
X019362Y001921D02*
X019669Y001921D01*
X018825Y001921D02*
X018825Y002381D01*
X018672Y002228D01*
X018727Y002771D02*
X018650Y002847D01*
X018650Y003001D01*
X018727Y003078D01*
X018880Y003078D01*
X018957Y003001D01*
X018957Y002924D01*
X018650Y002924D01*
X018727Y002771D02*
X018880Y002771D01*
X019111Y002771D02*
X019111Y003078D01*
X019264Y003078D02*
X019111Y002924D01*
X019264Y003078D02*
X019341Y003078D01*
X018497Y003078D02*
X018343Y003078D01*
X018420Y003154D02*
X018420Y002847D01*
X018497Y002771D01*
X018190Y002847D02*
X018113Y002771D01*
X017883Y002771D01*
X017883Y002617D02*
X017883Y003078D01*
X018113Y003078D01*
X018190Y003001D01*
X018190Y002847D01*
X017729Y002381D02*
X017729Y001921D01*
X017653Y001921D02*
X017806Y001921D01*
X017981Y001997D02*
X017981Y002304D01*
X017729Y002381D02*
X017653Y002381D01*
D13*
X017351Y005101D02*
X016851Y005101D01*
X016601Y005351D01*
X016351Y005101D01*
X015851Y005101D01*
X015601Y005351D01*
X015351Y005101D01*
X014851Y005101D01*
X014601Y005351D01*
X014351Y005101D01*
X013851Y005101D01*
X013601Y005351D01*
X013351Y005101D01*
X012851Y005101D01*
X012601Y005351D01*
X012351Y005101D01*
X011851Y005101D01*
X011601Y005351D01*
X011601Y005851D01*
X011851Y006101D01*
X012351Y006101D01*
X012601Y005851D01*
X012851Y006101D01*
X013351Y006101D01*
X013601Y005851D01*
X013851Y006101D01*
X014351Y006101D01*
X014601Y005851D01*
X014851Y006101D01*
X015351Y006101D01*
X015601Y005851D01*
X015851Y006101D01*
X016351Y006101D01*
X016601Y005851D01*
X016851Y006101D01*
X017351Y006101D01*
X017601Y005851D01*
X017601Y005351D01*
X017351Y005101D01*
X017351Y008101D02*
X017851Y008101D01*
X018101Y008351D01*
X018351Y008101D01*
X018851Y008101D01*
X019101Y008351D01*
X019101Y008851D01*
X018851Y009101D01*
X018351Y009101D01*
X018101Y008851D01*
X017851Y009101D01*
X017351Y009101D01*
X017101Y008851D01*
X016851Y009101D01*
X016351Y009101D01*
X016101Y008851D01*
X015851Y009101D01*
X015351Y009101D01*
X015101Y008851D01*
X014851Y009101D01*
X014351Y009101D01*
X014101Y008851D01*
X013851Y009101D01*
X013351Y009101D01*
X013101Y008851D01*
X012851Y009101D01*
X012351Y009101D01*
X012101Y008851D01*
X011851Y009101D01*
X011351Y009101D01*
X011101Y008851D01*
X011101Y008351D01*
X011351Y008101D01*
X011851Y008101D01*
X012101Y008351D01*
X012351Y008101D01*
X012851Y008101D01*
X013101Y008351D01*
X013351Y008101D01*
X013851Y008101D01*
X014101Y008351D01*
X014351Y008101D01*
X014851Y008101D01*
X015101Y008351D01*
X015351Y008101D01*
X015851Y008101D01*
X016101Y008351D01*
X016351Y008101D01*
X016851Y008101D01*
X017101Y008351D01*
X017351Y008101D01*
X017351Y009601D02*
X017101Y009851D01*
X017101Y010351D01*
X017351Y010601D01*
X017101Y010851D01*
X017101Y011351D01*
X017351Y011601D01*
X017101Y011851D01*
X017101Y012351D01*
X017351Y012601D01*
X017101Y012851D01*
X017101Y013351D01*
X017351Y013601D01*
X017101Y013851D01*
X017101Y014351D01*
X017351Y014601D01*
X017101Y014851D01*
X017101Y015351D01*
X017351Y015601D01*
X017101Y015851D01*
X017101Y016351D01*
X017351Y016601D01*
X017101Y016851D01*
X017101Y017351D01*
X017351Y017601D01*
X017851Y017601D01*
X018101Y017351D01*
X018101Y016851D01*
X017851Y016601D01*
X018101Y016351D01*
X018101Y015851D01*
X017851Y015601D01*
X018101Y015351D01*
X018101Y014851D01*
X017851Y014601D01*
X018101Y014351D01*
X018101Y013851D01*
X017851Y013601D01*
X018101Y013351D01*
X018101Y012851D01*
X017851Y012601D01*
X018101Y012351D01*
X018101Y011851D01*
X017851Y011601D01*
X018101Y011351D01*
X018101Y010851D01*
X017851Y010601D01*
X018101Y010351D01*
X018101Y009851D01*
X017851Y009601D01*
X017351Y009601D01*
X017101Y009851D02*
X016851Y009601D01*
X016351Y009601D01*
X016101Y009851D01*
X016101Y010351D01*
X016351Y010601D01*
X016101Y010851D01*
X016101Y011351D01*
X016351Y011601D01*
X016101Y011851D01*
X016101Y012351D01*
X016351Y012601D01*
X016101Y012851D01*
X016101Y013351D01*
X016351Y013601D01*
X016101Y013851D01*
X016101Y014351D01*
X016351Y014601D01*
X016101Y014851D01*
X016101Y015351D01*
X016351Y015601D01*
X016101Y015851D01*
X016101Y016351D01*
X016351Y016601D01*
X016101Y016851D01*
X016101Y017351D01*
X016351Y017601D01*
X016851Y017601D01*
X017101Y017351D01*
X017101Y016851D01*
X016851Y016601D01*
X017101Y016351D01*
X017101Y015851D01*
X016851Y015601D01*
X017101Y015351D01*
X017101Y014851D01*
X016851Y014601D01*
X017101Y014351D01*
X017101Y013851D01*
X016851Y013601D01*
X017101Y013351D01*
X017101Y012851D01*
X016851Y012601D01*
X017101Y012351D01*
X017101Y011851D01*
X016851Y011601D01*
X017101Y011351D01*
X017101Y010851D01*
X016851Y010601D01*
X017101Y010351D01*
X017101Y009851D01*
X018101Y009851D02*
X018101Y010351D01*
X018351Y010601D01*
X018101Y010851D01*
X018101Y011351D01*
X018351Y011601D01*
X018101Y011851D01*
X018101Y012351D01*
X018351Y012601D01*
X018101Y012851D01*
X018101Y013351D01*
X018351Y013601D01*
X018101Y013851D01*
X018101Y014351D01*
X018351Y014601D01*
X018101Y014851D01*
X018101Y015351D01*
X018351Y015601D01*
X018101Y015851D01*
X018101Y016351D01*
X018351Y016601D01*
X018101Y016851D01*
X018101Y017351D01*
X018351Y017601D01*
X018851Y017601D01*
X019101Y017351D01*
X019101Y016851D01*
X018851Y016601D01*
X019101Y016351D01*
X019101Y015851D01*
X018851Y015601D01*
X019101Y015351D01*
X019101Y014851D01*
X018851Y014601D01*
X019101Y014351D01*
X019101Y013851D01*
X018851Y013601D01*
X019101Y013351D01*
X019101Y012851D01*
X018851Y012601D01*
X019101Y012351D01*
X019101Y011851D01*
X018851Y011601D01*
X019101Y011351D01*
X019101Y010851D01*
X018851Y010601D01*
X019101Y010351D01*
X019101Y009851D01*
X018851Y009601D01*
X018351Y009601D01*
X018101Y009851D01*
X013351Y003101D02*
X012851Y003101D01*
X012601Y002851D01*
X012351Y003101D01*
X011851Y003101D01*
X011601Y002851D01*
X011351Y003101D01*
X010851Y003101D01*
X010601Y002851D01*
X010351Y003101D01*
X009851Y003101D01*
X009601Y002851D01*
X009351Y003101D01*
X008851Y003101D01*
X008601Y002851D01*
X008351Y003101D01*
X007851Y003101D01*
X007601Y002851D01*
X007601Y002351D01*
X007851Y002101D01*
X008351Y002101D01*
X008601Y002351D01*
X008851Y002101D01*
X009351Y002101D01*
X009601Y002351D01*
X009851Y002101D01*
X010351Y002101D01*
X010601Y002351D01*
X010851Y002101D01*
X011351Y002101D01*
X011601Y002351D01*
X011851Y002101D01*
X012351Y002101D01*
X012601Y002351D01*
X012851Y002101D01*
X013351Y002101D01*
X013601Y002351D01*
X013601Y002851D01*
X013351Y003101D01*
X010601Y004851D02*
X010601Y005351D01*
X010351Y005601D01*
X009851Y005601D01*
X009601Y005851D01*
X009351Y005601D01*
X008851Y005601D01*
X008601Y005851D01*
X008351Y005601D01*
X007851Y005601D01*
X007601Y005851D01*
X007351Y005601D01*
X006851Y005601D01*
X006601Y005851D01*
X006351Y005601D01*
X005851Y005601D01*
X005601Y005851D01*
X005351Y005601D01*
X004851Y005601D01*
X004601Y005851D01*
X004601Y006351D01*
X004851Y006601D01*
X005351Y006601D01*
X005601Y006351D01*
X005851Y006601D01*
X006351Y006601D01*
X006601Y006351D01*
X006851Y006601D01*
X007351Y006601D01*
X007601Y006351D01*
X007851Y006601D01*
X008351Y006601D01*
X008601Y006351D01*
X008851Y006601D01*
X009351Y006601D01*
X009601Y006351D01*
X009851Y006601D01*
X010351Y006601D01*
X010601Y006351D01*
X010601Y005851D01*
X010351Y005601D01*
X009851Y005601D01*
X009601Y005351D01*
X009351Y005601D01*
X008851Y005601D01*
X008601Y005351D01*
X008351Y005601D01*
X007851Y005601D01*
X007601Y005351D01*
X007351Y005601D01*
X006851Y005601D01*
X006601Y005351D01*
X006351Y005601D01*
X005851Y005601D01*
X005601Y005351D01*
X005351Y005601D01*
X004851Y005601D01*
X004601Y005351D01*
X004601Y004851D01*
X004851Y004601D01*
X005351Y004601D01*
X005601Y004851D01*
X005851Y004601D01*
X006351Y004601D01*
X006601Y004851D01*
X006851Y004601D01*
X007351Y004601D01*
X007601Y004851D01*
X007851Y004601D01*
X008351Y004601D01*
X008601Y004851D01*
X008851Y004601D01*
X009351Y004601D01*
X009601Y004851D01*
X009851Y004601D01*
X010351Y004601D01*
X010601Y004851D01*
X010351Y006601D02*
X009851Y006601D01*
X009601Y006851D01*
X009351Y006601D01*
X008851Y006601D01*
X008601Y006851D01*
X008351Y006601D01*
X007851Y006601D01*
X007601Y006851D01*
X007351Y006601D01*
X006851Y006601D01*
X006601Y006851D01*
X006351Y006601D01*
X005851Y006601D01*
X005601Y006851D01*
X005351Y006601D01*
X004851Y006601D01*
X004601Y006851D01*
X004601Y007351D01*
X004851Y007601D01*
X005351Y007601D01*
X005601Y007351D01*
X005851Y007601D01*
X006351Y007601D01*
X006601Y007351D01*
X006851Y007601D01*
X007351Y007601D01*
X007601Y007351D01*
X007851Y007601D01*
X008351Y007601D01*
X008601Y007351D01*
X008851Y007601D01*
X009351Y007601D01*
X009601Y007351D01*
X009851Y007601D01*
X010351Y007601D01*
X010601Y007351D01*
X010601Y006851D01*
X010351Y006601D01*
X006851Y004101D02*
X006351Y004101D01*
X003891Y004611D02*
X003891Y002251D01*
X001311Y002251D01*
X001311Y004611D01*
X001286Y007117D02*
X001128Y007274D01*
X001128Y007707D01*
X001286Y007117D02*
X001916Y007117D01*
X002073Y007274D01*
X002073Y007707D01*
X002073Y008494D02*
X002073Y009085D01*
X001128Y009085D01*
X001128Y008494D01*
X002034Y010420D02*
X002034Y010601D01*
X002156Y010723D01*
X002156Y010475D01*
X002030Y010601D01*
X002034Y010601D02*
X002034Y010782D01*
X002034Y011420D02*
X002034Y011601D01*
X002156Y011723D01*
X002156Y011475D01*
X002030Y011601D01*
X002034Y011601D02*
X002034Y011782D01*
X002034Y012420D02*
X002034Y012601D01*
X002156Y012723D01*
X002156Y012475D01*
X002030Y012601D01*
X002034Y012601D02*
X002034Y012782D01*
X001494Y014101D02*
X002707Y014101D01*
X003101Y014601D02*
X003101Y015589D01*
X002707Y016101D02*
X001494Y016101D01*
X001101Y015589D02*
X001101Y014613D01*
X001601Y015101D02*
X001603Y015145D01*
X001609Y015189D01*
X001619Y015232D01*
X001632Y015274D01*
X001649Y015315D01*
X001670Y015354D01*
X001694Y015391D01*
X001721Y015426D01*
X001751Y015458D01*
X001784Y015488D01*
X001820Y015514D01*
X001857Y015538D01*
X001897Y015557D01*
X001938Y015574D01*
X001981Y015586D01*
X002024Y015595D01*
X002068Y015600D01*
X002112Y015601D01*
X002156Y015598D01*
X002200Y015591D01*
X002243Y015580D01*
X002285Y015566D01*
X002325Y015548D01*
X002364Y015526D01*
X002400Y015502D01*
X002434Y015474D01*
X002466Y015443D01*
X002495Y015409D01*
X002521Y015373D01*
X002543Y015335D01*
X002562Y015295D01*
X002577Y015253D01*
X002589Y015211D01*
X002597Y015167D01*
X002601Y015123D01*
X002601Y015079D01*
X002597Y015035D01*
X002589Y014991D01*
X002577Y014949D01*
X002562Y014907D01*
X002543Y014867D01*
X002521Y014829D01*
X002495Y014793D01*
X002466Y014759D01*
X002434Y014728D01*
X002400Y014700D01*
X002364Y014676D01*
X002325Y014654D01*
X002285Y014636D01*
X002243Y014622D01*
X002200Y014611D01*
X002156Y014604D01*
X002112Y014601D01*
X002068Y014602D01*
X002024Y014607D01*
X001981Y014616D01*
X001938Y014628D01*
X001897Y014645D01*
X001857Y014664D01*
X001820Y014688D01*
X001784Y014714D01*
X001751Y014744D01*
X001721Y014776D01*
X001694Y014811D01*
X001670Y014848D01*
X001649Y014887D01*
X001632Y014928D01*
X001619Y014970D01*
X001609Y015013D01*
X001603Y015057D01*
X001601Y015101D01*
X003845Y013309D02*
X004357Y013309D01*
X004357Y011892D02*
X003845Y011892D01*
X006211Y011369D02*
X006211Y014833D01*
X006369Y014991D01*
X009833Y014991D01*
X009991Y014833D01*
X009991Y011369D01*
X009833Y011211D01*
X006369Y011211D01*
X006211Y011369D01*
X006351Y017601D02*
X005851Y017601D01*
X005601Y017851D01*
X005351Y017601D01*
X004851Y017601D01*
X004601Y017851D01*
X004351Y017601D01*
X003851Y017601D01*
X003601Y017851D01*
X003351Y017601D01*
X002851Y017601D01*
X002601Y017851D01*
X002351Y017601D01*
X001851Y017601D01*
X001601Y017851D01*
X001601Y018351D01*
X001851Y018601D01*
X002351Y018601D01*
X002601Y018351D01*
X002851Y018601D01*
X003351Y018601D01*
X003601Y018351D01*
X003851Y018601D01*
X004351Y018601D01*
X004601Y018351D01*
X004851Y018601D01*
X005351Y018601D01*
X005601Y018351D01*
X005851Y018601D01*
X006351Y018601D01*
X006601Y018351D01*
X006851Y018601D01*
X007351Y018601D01*
X007601Y018351D01*
X007851Y018601D01*
X008351Y018601D01*
X008601Y018351D01*
X008851Y018601D01*
X009351Y018601D01*
X009601Y018351D01*
X009601Y017851D01*
X009351Y017601D01*
X008851Y017601D01*
X008601Y017851D01*
X008351Y017601D01*
X007851Y017601D01*
X007601Y017851D01*
X007351Y017601D01*
X006851Y017601D01*
X006601Y017851D01*
X006351Y017601D01*
X006351Y001101D02*
X006851Y001101D01*
D14*
X007781Y003881D02*
X007831Y003881D01*
X007856Y003906D01*
X007903Y003881D02*
X008003Y003981D01*
X008003Y004006D01*
X007978Y004031D01*
X007928Y004031D01*
X007903Y004006D01*
X007856Y004006D02*
X007831Y004031D01*
X007781Y004031D01*
X007756Y004006D01*
X007756Y003906D01*
X007781Y003881D01*
X007903Y003881D02*
X008003Y003881D01*
X008050Y003881D02*
X008151Y003981D01*
X008151Y004006D01*
X008125Y004031D01*
X008075Y004031D01*
X008050Y004006D01*
X008050Y003881D02*
X008151Y003881D01*
X012256Y006906D02*
X012281Y006881D01*
X012331Y006881D01*
X012356Y006906D01*
X012403Y006881D02*
X012503Y006981D01*
X012503Y007006D01*
X012478Y007031D01*
X012428Y007031D01*
X012403Y007006D01*
X012356Y007006D02*
X012331Y007031D01*
X012281Y007031D01*
X012256Y007006D01*
X012256Y006906D01*
X012403Y006881D02*
X012503Y006881D01*
X012550Y006881D02*
X012651Y006881D01*
X012600Y006881D02*
X012600Y007031D01*
X012550Y006981D01*
X016856Y006935D02*
X016856Y006985D01*
X016856Y006960D02*
X016981Y006960D01*
X017006Y006935D01*
X017006Y006910D01*
X016981Y006885D01*
X016981Y006838D02*
X017006Y006813D01*
X017006Y006763D01*
X016981Y006738D01*
X016931Y006763D02*
X016931Y006813D01*
X016956Y006838D01*
X016981Y006838D01*
X016931Y006763D02*
X016906Y006738D01*
X016881Y006738D01*
X016856Y006763D01*
X016856Y006813D01*
X016881Y006838D01*
X016906Y007032D02*
X016856Y007082D01*
X017006Y007082D01*
X017006Y007032D02*
X017006Y007132D01*
X017956Y007107D02*
X017956Y007057D01*
X017981Y007032D01*
X017956Y006985D02*
X017956Y006935D01*
X017956Y006960D02*
X018081Y006960D01*
X018106Y006935D01*
X018106Y006910D01*
X018081Y006885D01*
X018081Y006838D02*
X018106Y006813D01*
X018106Y006763D01*
X018081Y006738D01*
X018031Y006763D02*
X018031Y006813D01*
X018056Y006838D01*
X018081Y006838D01*
X018031Y006763D02*
X018006Y006738D01*
X017981Y006738D01*
X017956Y006763D01*
X017956Y006813D01*
X017981Y006838D01*
X018106Y007032D02*
X018006Y007132D01*
X017981Y007132D01*
X017956Y007107D01*
X018106Y007132D02*
X018106Y007032D01*
X018881Y006884D02*
X018906Y006909D01*
X019006Y006808D01*
X019031Y006833D01*
X019031Y006884D01*
X019006Y006909D01*
X018906Y006909D01*
X018881Y006884D02*
X018881Y006833D01*
X018906Y006808D01*
X019006Y006808D01*
X019031Y006761D02*
X019031Y006661D01*
X019031Y006614D02*
X018981Y006564D01*
X018981Y006589D02*
X018981Y006514D01*
X019031Y006514D02*
X018881Y006514D01*
X018881Y006589D01*
X018906Y006614D01*
X018956Y006614D01*
X018981Y006589D01*
X018931Y006661D02*
X018881Y006711D01*
X019031Y006711D01*
X013659Y012096D02*
X013659Y012121D01*
X013634Y012146D01*
X013558Y012146D01*
X013558Y012096D01*
X013583Y012071D01*
X013634Y012071D01*
X013659Y012096D01*
X013609Y012196D02*
X013558Y012146D01*
X013511Y012146D02*
X013486Y012121D01*
X013411Y012121D01*
X013461Y012121D02*
X013511Y012071D01*
X013511Y012146D02*
X013511Y012196D01*
X013486Y012221D01*
X013411Y012221D01*
X013411Y012071D01*
X013609Y012196D02*
X013659Y012221D01*
X013684Y013121D02*
X013633Y013121D01*
X013608Y013146D01*
X013608Y013196D02*
X013659Y013221D01*
X013684Y013221D01*
X013709Y013196D01*
X013709Y013146D01*
X013684Y013121D01*
X013608Y013196D02*
X013608Y013271D01*
X013709Y013271D01*
X013561Y013246D02*
X013561Y013196D01*
X013536Y013171D01*
X013461Y013171D01*
X013511Y013171D02*
X013561Y013121D01*
X013461Y013121D02*
X013461Y013271D01*
X013536Y013271D01*
X013561Y013246D01*
X013511Y014121D02*
X013461Y014171D01*
X013486Y014171D02*
X013411Y014171D01*
X013411Y014121D02*
X013411Y014271D01*
X013486Y014271D01*
X013511Y014246D01*
X013511Y014196D01*
X013486Y014171D01*
X013558Y014196D02*
X013659Y014196D01*
X013634Y014271D02*
X013558Y014196D01*
X013634Y014121D02*
X013634Y014271D01*
X013634Y015171D02*
X013583Y015171D01*
X013558Y015196D01*
X013511Y015171D02*
X013461Y015221D01*
X013486Y015221D02*
X013411Y015221D01*
X013411Y015171D02*
X013411Y015321D01*
X013486Y015321D01*
X013511Y015296D01*
X013511Y015246D01*
X013486Y015221D01*
X013558Y015296D02*
X013583Y015321D01*
X013634Y015321D01*
X013659Y015296D01*
X013659Y015271D01*
X013634Y015246D01*
X013659Y015221D01*
X013659Y015196D01*
X013634Y015171D01*
X013634Y015246D02*
X013609Y015246D01*
X013608Y016121D02*
X013709Y016221D01*
X013709Y016246D01*
X013684Y016271D01*
X013633Y016271D01*
X013608Y016246D01*
X013561Y016246D02*
X013561Y016196D01*
X013536Y016171D01*
X013461Y016171D01*
X013511Y016171D02*
X013561Y016121D01*
X013608Y016121D02*
X013709Y016121D01*
X013561Y016246D02*
X013536Y016271D01*
X013461Y016271D01*
X013461Y016121D01*
X013461Y017121D02*
X013461Y017271D01*
X013536Y017271D01*
X013561Y017246D01*
X013561Y017196D01*
X013536Y017171D01*
X013461Y017171D01*
X013511Y017171D02*
X013561Y017121D01*
X013608Y017121D02*
X013709Y017121D01*
X013659Y017121D02*
X013659Y017271D01*
X013608Y017221D01*
X014756Y017406D02*
X014781Y017381D01*
X014831Y017381D01*
X014856Y017406D01*
X014903Y017381D02*
X015003Y017381D01*
X014953Y017381D02*
X014953Y017531D01*
X014903Y017481D01*
X014856Y017506D02*
X014831Y017531D01*
X014781Y017531D01*
X014756Y017506D01*
X014756Y017406D01*
X014781Y016531D02*
X014756Y016506D01*
X014756Y016406D01*
X014781Y016381D01*
X014831Y016381D01*
X014856Y016406D01*
X014903Y016381D02*
X015003Y016481D01*
X015003Y016506D01*
X014978Y016531D01*
X014928Y016531D01*
X014903Y016506D01*
X014856Y016506D02*
X014831Y016531D01*
X014781Y016531D01*
X014903Y016381D02*
X015003Y016381D01*
X014978Y015531D02*
X014928Y015531D01*
X014903Y015506D01*
X014856Y015506D02*
X014831Y015531D01*
X014781Y015531D01*
X014756Y015506D01*
X014756Y015406D01*
X014781Y015381D01*
X014831Y015381D01*
X014856Y015406D01*
X014903Y015406D02*
X014928Y015381D01*
X014978Y015381D01*
X015003Y015406D01*
X015003Y015431D01*
X014978Y015456D01*
X014953Y015456D01*
X014978Y015456D02*
X015003Y015481D01*
X015003Y015506D01*
X014978Y015531D01*
X014978Y014531D02*
X014903Y014456D01*
X015003Y014456D01*
X014978Y014381D02*
X014978Y014531D01*
X014856Y014506D02*
X014831Y014531D01*
X014781Y014531D01*
X014756Y014506D01*
X014756Y014406D01*
X014781Y014381D01*
X014831Y014381D01*
X014856Y014406D01*
X014831Y013531D02*
X014781Y013531D01*
X014756Y013506D01*
X014756Y013406D01*
X014781Y013381D01*
X014831Y013381D01*
X014856Y013406D01*
X014903Y013406D02*
X014928Y013381D01*
X014978Y013381D01*
X015003Y013406D01*
X015003Y013456D01*
X014978Y013481D01*
X014953Y013481D01*
X014903Y013456D01*
X014903Y013531D01*
X015003Y013531D01*
X014856Y013506D02*
X014831Y013531D01*
X014831Y012531D02*
X014781Y012531D01*
X014756Y012506D01*
X014756Y012406D01*
X014781Y012381D01*
X014831Y012381D01*
X014856Y012406D01*
X014903Y012406D02*
X014928Y012381D01*
X014978Y012381D01*
X015003Y012406D01*
X015003Y012431D01*
X014978Y012456D01*
X014903Y012456D01*
X014903Y012406D01*
X014903Y012456D02*
X014953Y012506D01*
X015003Y012531D01*
X014856Y012506D02*
X014831Y012531D01*
X011521Y012581D02*
X011521Y012631D01*
X011496Y012656D01*
X011496Y012703D02*
X011521Y012703D01*
X011496Y012703D02*
X011396Y012803D01*
X011371Y012803D01*
X011371Y012703D01*
X011396Y012656D02*
X011371Y012631D01*
X011371Y012581D01*
X011396Y012556D01*
X011496Y012556D01*
X011521Y012581D01*
X007209Y009846D02*
X007209Y009821D01*
X007184Y009796D01*
X007209Y009771D01*
X007209Y009746D01*
X007184Y009721D01*
X007133Y009721D01*
X007108Y009746D01*
X007061Y009721D02*
X006961Y009721D01*
X006914Y009721D02*
X006864Y009771D01*
X006889Y009771D02*
X006814Y009771D01*
X006814Y009721D02*
X006814Y009871D01*
X006889Y009871D01*
X006914Y009846D01*
X006914Y009796D01*
X006889Y009771D01*
X006961Y009821D02*
X007011Y009871D01*
X007011Y009721D01*
X007108Y009846D02*
X007133Y009871D01*
X007184Y009871D01*
X007209Y009846D01*
X007184Y009796D02*
X007159Y009796D01*
X006209Y009771D02*
X006184Y009796D01*
X006108Y009796D01*
X006108Y009746D01*
X006133Y009721D01*
X006184Y009721D01*
X006209Y009746D01*
X006209Y009771D01*
X006159Y009846D02*
X006108Y009796D01*
X006159Y009846D02*
X006209Y009871D01*
X006011Y009871D02*
X006011Y009721D01*
X005961Y009721D02*
X006061Y009721D01*
X005961Y009821D02*
X006011Y009871D01*
X005914Y009846D02*
X005889Y009871D01*
X005814Y009871D01*
X005814Y009721D01*
X005814Y009771D02*
X005889Y009771D01*
X005914Y009796D01*
X005914Y009846D01*
X005864Y009771D02*
X005914Y009721D01*
X004821Y009678D02*
X004821Y009628D01*
X004796Y009603D01*
X004821Y009556D02*
X004771Y009506D01*
X004771Y009531D02*
X004771Y009456D01*
X004821Y009456D02*
X004671Y009456D01*
X004671Y009531D01*
X004696Y009556D01*
X004746Y009556D01*
X004771Y009531D01*
X004721Y009603D02*
X004746Y009628D01*
X004746Y009703D01*
X004796Y009703D02*
X004696Y009703D01*
X004671Y009678D01*
X004671Y009628D01*
X004696Y009603D01*
X004721Y009603D01*
X004821Y009678D02*
X004796Y009703D01*
X003453Y011031D02*
X003453Y011056D01*
X003553Y011156D01*
X003553Y011181D01*
X003453Y011181D01*
X003406Y011156D02*
X003406Y011106D01*
X003381Y011081D01*
X003306Y011081D01*
X003356Y011081D02*
X003406Y011031D01*
X003306Y011031D02*
X003306Y011181D01*
X003381Y011181D01*
X003406Y011156D01*
X003209Y011521D02*
X003108Y011521D01*
X003209Y011621D01*
X003209Y011646D01*
X003184Y011671D01*
X003133Y011671D01*
X003108Y011646D01*
X003061Y011646D02*
X003036Y011671D01*
X002961Y011671D01*
X002961Y011521D01*
X003036Y011521D01*
X003061Y011546D01*
X003061Y011646D01*
X002914Y011671D02*
X002814Y011671D01*
X002814Y011521D01*
X002914Y011521D01*
X002864Y011596D02*
X002814Y011596D01*
X002767Y011521D02*
X002666Y011521D01*
X002666Y011671D01*
X002706Y012531D02*
X002806Y012531D01*
X002853Y012531D02*
X002853Y012681D01*
X002953Y012681D01*
X003000Y012681D02*
X003075Y012681D01*
X003101Y012656D01*
X003101Y012556D01*
X003075Y012531D01*
X003000Y012531D01*
X003000Y012681D01*
X002903Y012606D02*
X002853Y012606D01*
X002853Y012531D02*
X002953Y012531D01*
X003148Y012531D02*
X003248Y012531D01*
X003198Y012531D02*
X003198Y012681D01*
X003148Y012631D01*
X002706Y012681D02*
X002706Y012531D01*
X002625Y013381D02*
X002625Y013531D01*
X002550Y013456D01*
X002651Y013456D01*
X002503Y013381D02*
X002403Y013381D01*
X002356Y013381D02*
X002306Y013431D01*
X002331Y013431D02*
X002256Y013431D01*
X002256Y013381D02*
X002256Y013531D01*
X002331Y013531D01*
X002356Y013506D01*
X002356Y013456D01*
X002331Y013431D01*
X002403Y013481D02*
X002453Y013531D01*
X002453Y013381D01*
X002436Y014346D02*
X002386Y014346D01*
X002361Y014371D01*
X002386Y014421D02*
X002436Y014421D01*
X002461Y014396D01*
X002461Y014371D01*
X002436Y014346D01*
X002508Y014346D02*
X002609Y014346D01*
X002559Y014346D02*
X002559Y014496D01*
X002508Y014446D01*
X002461Y014471D02*
X002436Y014496D01*
X002386Y014496D01*
X002361Y014471D01*
X002361Y014446D01*
X002386Y014421D01*
X004606Y012859D02*
X004756Y012859D01*
X004756Y012909D02*
X004756Y012808D01*
X004756Y012711D02*
X004681Y012711D01*
X004631Y012761D01*
X004606Y012761D01*
X004656Y012808D02*
X004606Y012859D01*
X004681Y012711D02*
X004631Y012661D01*
X004606Y012661D01*
X003184Y010671D02*
X003209Y010646D01*
X003209Y010621D01*
X003184Y010596D01*
X003209Y010571D01*
X003209Y010546D01*
X003184Y010521D01*
X003133Y010521D01*
X003108Y010546D01*
X003061Y010546D02*
X003061Y010646D01*
X003036Y010671D01*
X002961Y010671D01*
X002961Y010521D01*
X003036Y010521D01*
X003061Y010546D01*
X003159Y010596D02*
X003184Y010596D01*
X003184Y010671D02*
X003133Y010671D01*
X003108Y010646D01*
X002914Y010671D02*
X002814Y010671D01*
X002814Y010521D01*
X002914Y010521D01*
X002864Y010596D02*
X002814Y010596D01*
X002767Y010521D02*
X002666Y010521D01*
X002666Y010671D01*
X002678Y009831D02*
X002728Y009831D01*
X002753Y009806D01*
X002753Y009781D01*
X002728Y009756D01*
X002678Y009756D01*
X002653Y009781D01*
X002653Y009806D01*
X002678Y009831D01*
X002678Y009756D02*
X002653Y009731D01*
X002653Y009706D01*
X002678Y009681D01*
X002728Y009681D01*
X002753Y009706D01*
X002753Y009731D01*
X002728Y009756D01*
X002606Y009756D02*
X002581Y009731D01*
X002506Y009731D01*
X002556Y009731D02*
X002606Y009681D01*
X002606Y009756D02*
X002606Y009806D01*
X002581Y009831D01*
X002506Y009831D01*
X002506Y009681D01*
X002274Y009059D02*
X002299Y009034D01*
X002299Y008983D01*
X002274Y008958D01*
X002299Y008911D02*
X002299Y008811D01*
X002299Y008861D02*
X002149Y008861D01*
X002199Y008811D01*
X002174Y008764D02*
X002149Y008739D01*
X002149Y008689D01*
X002174Y008664D01*
X002274Y008664D01*
X002299Y008689D01*
X002299Y008739D01*
X002274Y008764D01*
X002174Y008958D02*
X002149Y008983D01*
X002149Y009034D01*
X002174Y009059D01*
X002199Y009059D01*
X002224Y009034D01*
X002249Y009059D01*
X002274Y009059D01*
X002224Y009034D02*
X002224Y009009D01*
X002911Y008096D02*
X002911Y007971D01*
X002936Y007946D01*
X002986Y007946D01*
X003011Y007971D01*
X003011Y008096D01*
X003058Y008096D02*
X003058Y008021D01*
X003109Y008046D01*
X003134Y008046D01*
X003159Y008021D01*
X003159Y007971D01*
X003134Y007946D01*
X003083Y007946D01*
X003058Y007971D01*
X003058Y008096D02*
X003159Y008096D01*
X005314Y008271D02*
X005314Y008421D01*
X005389Y008421D01*
X005414Y008396D01*
X005414Y008346D01*
X005389Y008321D01*
X005314Y008321D01*
X005364Y008321D02*
X005414Y008271D01*
X005461Y008271D02*
X005561Y008271D01*
X005608Y008271D02*
X005709Y008271D01*
X005659Y008271D02*
X005659Y008421D01*
X005608Y008371D01*
X005511Y008421D02*
X005511Y008271D01*
X005461Y008371D02*
X005511Y008421D01*
X006314Y008421D02*
X006314Y008271D01*
X006314Y008321D02*
X006389Y008321D01*
X006414Y008346D01*
X006414Y008396D01*
X006389Y008421D01*
X006314Y008421D01*
X006364Y008321D02*
X006414Y008271D01*
X006461Y008271D02*
X006561Y008271D01*
X006511Y008271D02*
X006511Y008421D01*
X006461Y008371D01*
X006608Y008346D02*
X006659Y008371D01*
X006684Y008371D01*
X006709Y008346D01*
X006709Y008296D01*
X006684Y008271D01*
X006633Y008271D01*
X006608Y008296D01*
X006608Y008346D02*
X006608Y008421D01*
X006709Y008421D01*
X007314Y008371D02*
X007389Y008371D01*
X007414Y008396D01*
X007414Y008446D01*
X007389Y008471D01*
X007314Y008471D01*
X007314Y008321D01*
X007364Y008371D02*
X007414Y008321D01*
X007461Y008321D02*
X007561Y008321D01*
X007608Y008321D02*
X007709Y008421D01*
X007709Y008446D01*
X007684Y008471D01*
X007633Y008471D01*
X007608Y008446D01*
X007511Y008471D02*
X007511Y008321D01*
X007608Y008321D02*
X007709Y008321D01*
X007511Y008471D02*
X007461Y008421D01*
D15*
X003661Y008420D02*
X003661Y007782D01*
X003623Y007782D01*
X003306Y007782D02*
X002895Y007782D01*
X002578Y007782D02*
X002541Y007782D01*
X002541Y008420D01*
X002578Y008420D01*
X002895Y008420D02*
X002932Y008420D01*
X003269Y008420D02*
X003306Y008420D01*
X003623Y008420D02*
X003661Y008420D01*
X016007Y007116D02*
X016007Y006486D01*
X016006Y006486D02*
X016006Y006467D01*
X016010Y006448D01*
X016016Y006430D01*
X016026Y006414D01*
X016038Y006399D01*
X016052Y006387D01*
X016069Y006377D01*
X016086Y006371D01*
X016105Y006367D01*
X016106Y006368D02*
X016696Y006368D01*
X016696Y006367D02*
X016715Y006371D01*
X016732Y006377D01*
X016749Y006387D01*
X016763Y006399D01*
X016775Y006414D01*
X016785Y006430D01*
X016791Y006448D01*
X016795Y006467D01*
X016795Y006486D01*
X016794Y006486D02*
X016794Y007116D01*
X016795Y007116D02*
X016795Y007135D01*
X016791Y007154D01*
X016785Y007172D01*
X016775Y007188D01*
X016763Y007203D01*
X016749Y007215D01*
X016732Y007225D01*
X016715Y007231D01*
X016696Y007235D01*
X016696Y007234D02*
X016106Y007234D01*
X016105Y007235D02*
X016087Y007231D01*
X016069Y007225D01*
X016052Y007215D01*
X016038Y007203D01*
X016025Y007188D01*
X016016Y007172D01*
X016010Y007154D01*
X016006Y007135D01*
X016006Y007116D01*
X017107Y007116D02*
X017107Y006486D01*
X017106Y006486D02*
X017106Y006467D01*
X017110Y006448D01*
X017116Y006430D01*
X017126Y006414D01*
X017138Y006399D01*
X017152Y006387D01*
X017169Y006377D01*
X017186Y006371D01*
X017205Y006367D01*
X017206Y006368D02*
X017796Y006368D01*
X017796Y006367D02*
X017815Y006371D01*
X017832Y006377D01*
X017849Y006387D01*
X017863Y006399D01*
X017875Y006414D01*
X017885Y006430D01*
X017891Y006448D01*
X017895Y006467D01*
X017895Y006486D01*
X017894Y006486D02*
X017894Y007116D01*
X017895Y007116D02*
X017895Y007135D01*
X017891Y007154D01*
X017885Y007172D01*
X017875Y007188D01*
X017863Y007203D01*
X017849Y007215D01*
X017832Y007225D01*
X017815Y007231D01*
X017796Y007235D01*
X017796Y007234D02*
X017206Y007234D01*
X017205Y007235D02*
X017187Y007231D01*
X017169Y007225D01*
X017152Y007215D01*
X017138Y007203D01*
X017125Y007188D01*
X017116Y007172D01*
X017110Y007154D01*
X017106Y007135D01*
X017106Y007116D01*
D16*
X012601Y006613D02*
X012601Y006589D01*
X008101Y003613D02*
X008101Y003589D01*
X015101Y012089D02*
X015101Y012113D01*
X015101Y013089D02*
X015101Y013113D01*
X015101Y014089D02*
X015101Y014113D01*
X015101Y015089D02*
X015101Y015113D01*
X015101Y016089D02*
X015101Y016113D01*
X015101Y017089D02*
X015101Y017113D01*
X011063Y013001D02*
X011039Y013001D01*
D17*
X007601Y009101D03*
X007101Y009101D03*
X006601Y009101D03*
X006101Y009101D03*
X005601Y009101D03*
X005101Y009101D03*
X018601Y006601D03*
D18*
X013601Y012601D03*
X013601Y013601D03*
X013601Y014601D03*
X013601Y015601D03*
X013601Y016601D03*
X013601Y017601D03*
X002601Y013101D03*
X002601Y011101D03*
X002601Y010101D03*
D19*
X006415Y014676D02*
X006417Y014696D01*
X006422Y014716D01*
X006432Y014734D01*
X006444Y014751D01*
X006459Y014765D01*
X006477Y014775D01*
X006496Y014783D01*
X006516Y014787D01*
X006536Y014787D01*
X006556Y014783D01*
X006575Y014775D01*
X006593Y014765D01*
X006608Y014751D01*
X006620Y014734D01*
X006630Y014716D01*
X006635Y014696D01*
X006637Y014676D01*
X006635Y014656D01*
X006630Y014636D01*
X006620Y014618D01*
X006608Y014601D01*
X006593Y014587D01*
X006575Y014577D01*
X006556Y014569D01*
X006536Y014565D01*
X006516Y014565D01*
X006496Y014569D01*
X006477Y014577D01*
X006459Y014587D01*
X006444Y014601D01*
X006432Y014618D01*
X006422Y014636D01*
X006417Y014656D01*
X006415Y014676D01*
D20*
X002601Y002061D03*
M02*
